<?xml version="1.0" standalone="no"?>
<!DOCTYPE svg PUBLIC "-//W3C//DTD SVG 1.1//EN" "http://www.w3.org/Graphics/SVG/1.1/DTD/svg11.dtd" >
<svg xmlns="http://www.w3.org/2000/svg">
<metadata></metadata>
<defs>
<font id="museo_sans_cyrl900_italic" horiz-adv-x="1679" >
<font-face units-per-em="2048" ascent="1536" descent="-512" />
<missing-glyph horiz-adv-x="512" />
<glyph horiz-adv-x="0" />
<glyph horiz-adv-x="682" />
<glyph unicode=" "  horiz-adv-x="512" />
<glyph unicode="&#x09;" horiz-adv-x="512" />
<glyph unicode="&#xa0;" horiz-adv-x="512" />
<glyph unicode="!" horiz-adv-x="634" d="M39 0l59 307h324l-60 -307h-323zM133 453l164 1011h369l-230 -1011h-303z" />
<glyph unicode="&#x22;" horiz-adv-x="894" d="M201 1004l96 491h250l-96 -491h-250zM592 1004l96 491h250l-96 -491h-250z" />
<glyph unicode="#" horiz-adv-x="1462" d="M31 369l86 245h200l74 195h-196l88 246h196l152 409h280l-151 -409h221l152 409h280l-151 -409h208l-88 -246h-208l-74 -195h205l-88 -245h-205l-135 -369h-281l135 369h-221l-135 -369h-281l135 369h-198zM598 614h221l74 195h-221z" />
<glyph unicode="$" horiz-adv-x="1228" d="M4 184l213 254q61 -61 156 -97t190 -36q65 0 120.5 31.5t55.5 97.5q0 30 -30 59t-78.5 55t-106.5 56t-116 69.5t-106.5 87.5t-78.5 118t-30 153q0 127 68.5 228t175 156.5t233.5 68.5l37 184h223l-37 -192q97 -17 191.5 -57t152.5 -101l-193 -264q-56 46 -144.5 75 t-168.5 29q-65 0 -122.5 -33t-57.5 -94q0 -32 30.5 -61.5t79 -55.5t107 -55t117.5 -68t107.5 -86t79 -117.5t30.5 -154.5q0 -183 -142 -313.5t-360 -143.5l-33 -180h-223l37 195q-228 48 -377 192z" />
<glyph unicode="%" horiz-adv-x="1810" d="M74 0l1380 1464h326l-1381 -1464h-325zM176 1108q0 96 57.5 185t151.5 142.5t195 53.5q154 0 252 -95.5t98 -238.5q0 -97 -59 -184t-153 -138t-194 -51q-154 0 -251 92t-97 234zM438 1116q0 -39 28 -63.5t75 -24.5q49 0 88 37t39 88q0 39 -28.5 64.5t-74.5 25.5 q-48 0 -87.5 -39t-39.5 -88zM930 301q0 96 57 185t151 142.5t195 53.5q154 0 252 -95.5t98 -238.5q0 -97 -58.5 -184t-152.5 -138t-194 -51q-154 0 -251 92t-97 234zM1192 309q0 -39 27.5 -63.5t74.5 -24.5q49 0 88 37t39 88q0 39 -28 64.5t-74 25.5q-48 0 -87.5 -39 t-39.5 -88z" />
<glyph unicode="&#x26;" horiz-adv-x="1433" d="M51 397q0 121 92 232.5t228 150.5v4q-5 2 -13.5 7t-30.5 24.5t-39 43.5t-30.5 67.5t-13.5 93.5q0 98 33.5 178.5t87.5 133t126.5 89t147.5 52.5t152 16q109 0 221 -39l-131 -266q-27 8 -78 8q-79 0 -141 -47.5t-62 -134.5q0 -48 32.5 -79.5t92.5 -31.5h178l35 180h352 l-35 -180h183l-60 -307h-182l-27 -141q-44 -233 -199 -354.5t-401 -121.5q-242 0 -380 117t-138 305zM428 424q0 -53 43 -88t111 -35q98 0 161.5 47.5t77.5 122.5l23 121h-201q-37 0 -72 -8.5t-68.5 -26.5t-54 -52.5t-20.5 -80.5z" />
<glyph unicode="'" horiz-adv-x="509" d="M201 1004l96 491h256l-96 -491h-256z" />
<glyph unicode="(" horiz-adv-x="686" d="M74 371q0 335 104.5 623.5t333.5 541.5h301q-216 -265 -324 -563t-108 -611q0 -301 94 -557h-280q-121 276 -121 566z" />
<glyph unicode=")" horiz-adv-x="684" d="M-104 -195q216 265 324 563t108 611q0 298 -95 557h281q121 -276 121 -565q0 -335 -104.5 -624t-333.5 -542h-301z" />
<glyph unicode="*" horiz-adv-x="1024" d="M158 1040l149 287l191 -92l22 229h311l-69 -229l229 94l41 -299l-250 -53l123 -166l-268 -180l-84 203l-154 -201l-225 184l191 180z" />
<glyph unicode="+" horiz-adv-x="1228" d="M25 455l51 266h420l88 457h278l-88 -457h420l-51 -266h-420l-88 -455h-279l88 455h-419z" />
<glyph unicode="," horiz-adv-x="626" d="M-131 -227l260 567h346l-342 -567h-264z" />
<glyph unicode="-" horiz-adv-x="886" d="M86 434l59 307h643l-59 -307h-643z" />
<glyph unicode="." horiz-adv-x="581" d="M6 0l64 336h336l-64 -336h-336z" />
<glyph unicode="/" horiz-adv-x="974" d="M-66 -86l836 1622h315l-837 -1622h-314z" />
<glyph unicode="0" horiz-adv-x="1314" d="M102 487q0 83 10.5 173t34.5 188.5t59.5 189.5t90.5 174t122 144t159 97t198 36q486 0 486 -508q0 -83 -10.5 -173t-35 -188.5t-60.5 -190t-91 -175t-122.5 -145t-159.5 -98t-197 -36.5q-484 0 -484 512zM473 504q0 -201 125 -201q70 0 128 70.5t92 175.5t52.5 214 t18.5 198q0 200 -125 200q-70 0 -128.5 -71t-92.5 -176.5t-52 -213.5t-18 -196z" />
<glyph unicode="1" horiz-adv-x="1132" d="M6 0l55 307h312l116 584l25 113h-4q-27 -41 -74 -78l-102 -80l-178 241l483 377h309l-225 -1157h311l-59 -307h-969z" />
<glyph unicode="2" horiz-adv-x="1234" d="M6 0q0 86 16.5 164t41.5 139t67 118.5t81.5 99t96 85.5t100 72.5t103.5 64.5q23 14 64.5 38.5t62 37t52.5 33t48.5 34t37.5 33t30.5 35.5t16.5 36.5t7 41.5q0 55 -37.5 87t-99.5 32q-145 0 -256 -156l-252 197q38 46 66 77t82 77t107 73.5t129.5 48.5t160.5 21 q91 0 175.5 -27.5t152 -78t107.5 -131t40 -179.5q0 -48 -10.5 -93.5t-26 -83t-43.5 -76t-52.5 -67t-64.5 -62t-69 -55t-75.5 -50.5t-73.5 -45t-74 -43q-122 -70 -177 -110.5t-67 -80.5h604l-59 -307h-1012z" />
<glyph unicode="3" horiz-adv-x="1206" d="M-25 168l205 254q48 -52 128 -80.5t163 -28.5q120 0 186 50.5t66 123.5q0 134 -234 134h-120l-41 174l219 231q36 38 75 72.5t60 49.5l20 15v4q-49 -10 -141 -10h-334l60 307h923l-43 -223l-360 -362q50 -13 97 -42t88 -73.5t66 -112t25 -147.5q0 -78 -23 -153.5 t-72.5 -143.5t-119 -119.5t-170.5 -82t-219 -30.5q-146 0 -278.5 48.5t-225.5 144.5z" />
<glyph unicode="4" horiz-adv-x="1298" d="M4 354l39 217l709 893h469l-158 -813h174l-57 -297h-174l-70 -354h-354l69 354h-647zM442 651h267l63 328q7 36 18 77t18 64l7 23h-4q-51 -89 -100 -152l-269 -336v-4z" />
<glyph unicode="5" horiz-adv-x="1206" d="M-2 168l209 256q52 -48 127 -79.5t147 -31.5q107 0 183.5 59.5t76.5 147.5q0 74 -57 115t-149 41q-50 0 -101.5 -12t-77.5 -24l-26 -13l-189 73l209 764h830l-60 -307h-508l-34 -131l-19 -57h4q52 10 111 10q188 0 313 -124t125 -316q0 -114 -49 -218t-133 -180 t-202.5 -121t-250.5 -45q-134 0 -262.5 49.5t-216.5 143.5z" />
<glyph unicode="6" horiz-adv-x="1267" d="M92 532q0 106 26.5 218t75 218.5t123 201t164.5 165.5t205 112.5t240 41.5q212 0 348 -68l-146 -291q-105 31 -198 31q-122 0 -213.5 -65.5t-149.5 -175.5h4q27 23 81 37t100 14q103 0 183.5 -34.5t130.5 -95.5t75.5 -140t25.5 -171q0 -99 -38.5 -197.5t-106.5 -178.5 t-171.5 -129.5t-223.5 -49.5q-87 0 -165.5 21.5t-146 67t-117 110t-78 156.5t-28.5 202zM457 528q0 -99 52.5 -162t123.5 -63q80 0 131 65t51 148q0 71 -44.5 118.5t-137.5 47.5q-84 0 -130 -44t-46 -110z" />
<glyph unicode="7" horiz-adv-x="1165" d="M-4 0l715 1026q31 45 61 78.5t44 43.5l15 11v4q-20 -6 -94 -6h-555l60 307h1050l-49 -250l-850 -1214h-397z" />
<glyph unicode="8" horiz-adv-x="1284" d="M53 401q0 69 32.5 138t84 122.5t89.5 85t73 54.5q-99 106 -99 237q0 83 35.5 162.5t100.5 144.5t168 104.5t227 39.5q209 0 341 -103.5t132 -285.5q0 -61 -26 -127t-66 -119.5t-69 -85.5t-54 -55q131 -105 131 -258q0 -69 -25 -137.5t-75.5 -130.5t-119.5 -109t-164 -75 t-202 -28q-126 0 -225.5 33.5t-161.5 92.5t-94.5 135t-32.5 165zM430 428q0 -59 41.5 -98t106.5 -39q83 0 144.5 45t61.5 119q0 19 -7 36.5t-25 34.5t-32.5 29.5t-47.5 31t-50.5 28t-58.5 30.5q-133 -108 -133 -217zM590 1036q0 -57 45.5 -97.5t136.5 -86.5q105 111 105 213 q0 51 -34.5 80t-97.5 29q-72 0 -113.5 -40t-41.5 -98z" />
<glyph unicode="9" horiz-adv-x="1269" d="M41 43l145 291q91 -31 199 -31q122 0 213 66t150 176h-5q-9 -6 -25.5 -14.5t-63.5 -22.5t-91 -14q-103 0 -184 34.5t-131 95t-75.5 139.5t-25.5 171q0 99 39.5 197.5t108.5 178t174 129.5t225 50q109 0 203.5 -35t167.5 -102t115.5 -175.5t42.5 -244.5q0 -106 -26.5 -218 t-75 -218.5t-123 -201t-164.5 -165.5t-205 -112.5t-240 -41.5q-212 0 -348 68zM500 948q0 -71 44.5 -118.5t137.5 -47.5q84 0 130 44t46 110q0 99 -52.5 162t-123.5 63q-80 0 -131 -65t-51 -148z" />
<glyph unicode=":" horiz-adv-x="579" d="M2 0l66 336h335l-65 -336h-336zM143 719l66 336h336l-66 -336h-336z" />
<glyph unicode=";" horiz-adv-x="649" d="M-131 -227l260 567h346l-342 -567h-264zM205 719l65 336h324l-66 -336h-323z" />
<glyph unicode="&#x3c;" horiz-adv-x="1228" d="M49 479v219l1032 457v-297l-675 -268v-4l675 -267v-296z" />
<glyph unicode="=" horiz-adv-x="1228" d="M86 219v266h1036v-266h-1036zM86 690v266h1036v-266h-1036z" />
<glyph unicode="&#x3e;" horiz-adv-x="1228" d="M137 23v296l676 267v4l-676 268v297l1032 -457v-219z" />
<glyph unicode="?" horiz-adv-x="1060" d="M184 0l60 307h323l-59 -307h-324zM205 1346q75 60 193 104.5t237 44.5q68 0 132 -15t119.5 -45.5t97 -74t65.5 -103.5t24 -131q0 -74 -23.5 -138t-61.5 -110.5t-84.5 -87t-94 -73.5t-88 -62.5t-69.5 -62.5t-36 -66l-14 -73h-340l19 102q11 60 40 112.5t66.5 90.5 t80.5 71.5t84 62.5t74 56.5t53.5 59t20.5 65.5q0 44 -34.5 72.5t-87.5 28.5q-90 0 -211 -89z" />
<glyph unicode="@" horiz-adv-x="1740" d="M66 362q0 180 73.5 345.5t197.5 286.5t296 193.5t360 72.5q123 0 218.5 -21t159 -57.5t105 -90t59 -114.5t17.5 -135q0 -53 -14 -125l-68 -355h152l-47 -243h-549q-207 0 -317.5 97.5t-110.5 242.5q0 71 33.5 140t95 126t160.5 92t219 35h131q2 8 2 14q0 37 -39 64.5 t-95 40t-118 12.5q-117 0 -224.5 -54.5t-182.5 -140t-119.5 -192.5t-44.5 -211q0 -170 110.5 -279.5t319.5 -109.5l-51 -262q-213 0 -379.5 81t-258 224.5t-91.5 322.5zM950 467q0 -47 28.5 -76t84.5 -29h80l53 275h-76q-76 0 -123 -51t-47 -119z" />
<glyph unicode="A" horiz-adv-x="1368" d="M-117 0l762 1464h412l203 -1464h-359l-31 307h-456l-148 -307h-383zM553 594h289l-29 285q-4 41 -7 103.5t-4 105.5l-1 42h-4q-60 -159 -105 -251z" />
<glyph unicode="B" horiz-adv-x="1331" d="M37 0l285 1464h471q164 0 256 -32q110 -38 170.5 -121.5t60.5 -194.5q0 -102 -61 -197.5t-166 -148.5v-4q90 -33 133 -109.5t43 -171.5q0 -168 -99.5 -285t-259.5 -167q-98 -33 -233 -33h-600zM455 307h215q55 0 100 25q41 26 65.5 71t24.5 93q0 52 -32.5 83t-96.5 31 h-217zM569 897h185q71 0 114 50t43 114q0 96 -112 96h-178z" />
<glyph unicode="C" horiz-adv-x="1468" d="M92 625q0 173 68.5 333t184 276t275 185.5t332.5 69.5q162 0 314 -52t252 -159l-203 -246q-67 57 -161 93t-189 36q-94 0 -177 -31t-141 -82.5t-100.5 -118t-63 -138.5t-20.5 -142q0 -150 87.5 -248t252.5 -98q209 0 428 174l139 -284q-105 -95 -267.5 -156.5 t-320.5 -61.5q-210 0 -367.5 83t-240 230t-82.5 337z" />
<glyph unicode="D" horiz-adv-x="1511" d="M39 0l283 1464h469q319 0 498 -152.5t179 -426.5q0 -182 -63.5 -344.5t-175 -281.5t-272.5 -189t-347 -70h-571zM457 307h147q147 0 261 74t174.5 197.5t60.5 273.5q0 149 -87 227t-243 78h-147z" />
<glyph unicode="E" horiz-adv-x="1177" d="M37 0l287 1464h915l-59 -307h-559l-52 -266h445l-62 -307h-444l-53 -277h587l-59 -307h-946z" />
<glyph unicode="F" horiz-adv-x="1105" d="M39 0l283 1464h895l-58 -307h-538l-60 -307h445l-58 -307h-446l-107 -543h-356z" />
<glyph unicode="G" horiz-adv-x="1583" d="M92 623q0 174 68 333.5t184 276.5t281 186.5t350 69.5q154 0 308 -47.5t255 -141.5l-207 -247q-57 47 -154.5 77.5t-193.5 30.5q-126 0 -227.5 -45.5t-163.5 -120t-94.5 -164t-32.5 -184.5q0 -168 98 -256t246 -88q159 0 317 107l23 112h-207l59 305h525l-162 -827h-299 l8 41l14 61h-4q-61 -61 -157 -94t-201 -33q-122 0 -235 44t-202 124t-142.5 205t-53.5 275z" />
<glyph unicode="H" horiz-adv-x="1560" d="M37 0l285 1464h358l-115 -585h533l114 585h359l-285 -1464h-358l110 573h-532l-111 -573h-358z" />
<glyph unicode="I" horiz-adv-x="669" d="M37 0l285 1464h358l-285 -1464h-358z" />
<glyph unicode="J" horiz-adv-x="1153" d="M-6 365q0 57 10 106l16 86h359l-14 -76q-9 -56 -9 -67q0 -111 109 -111q59 0 100 38.5t56 115.5l137 700h-391l59 307h750l-201 -1034q-28 -149 -107.5 -254t-184 -153t-226.5 -48q-124 0 -227.5 42.5t-169.5 133t-66 214.5z" />
<glyph unicode="K" horiz-adv-x="1396" d="M37 0l285 1464h358l-111 -565h138l419 565h416l-555 -719v-4l266 -741h-381l-194 594h-168l-115 -594h-358z" />
<glyph unicode="L" horiz-adv-x="1124" d="M37 0l285 1464h358l-225 -1157h598l-62 -307h-954z" />
<glyph unicode="M" horiz-adv-x="1798" d="M-14 0l391 1464h391l96 -618q6 -42 12.5 -102.5t9.5 -99.5l3 -40h4q72 146 123 242l334 618h393l-166 -1464h-352l84 659q6 49 18 110.5t21 98.5l8 37h-4q-78 -156 -129 -246l-238 -423h-311l-74 423q-7 41 -15 103.5t-12 104.5l-4 42h-4q-18 -139 -47 -250l-172 -659 h-360z" />
<glyph unicode="N" horiz-adv-x="1533" d="M37 0l285 1464h348l272 -684q17 -43 35.5 -105.5t28.5 -103.5l10 -41h4q15 158 33 250l133 684h358l-284 -1464h-347l-274 682q-17 43 -36 105.5t-29 103.5l-11 41h-4q-13 -158 -31 -250l-133 -682h-358z" />
<glyph unicode="O" d="M90 629q0 170 71.5 329.5t188.5 275.5t275 185.5t323 69.5q310 0 500 -179t190 -460q0 -173 -72.5 -335.5t-191 -280t-276 -188.5t-320.5 -71q-155 0 -284.5 49t-217.5 135.5t-137 207.5t-49 262zM459 649q0 -155 90 -250.5t233 -95.5q89 0 177 41t156 110t110.5 167.5 t42.5 205.5q0 150 -90.5 242t-233.5 92q-91 0 -179.5 -40t-155.5 -107.5t-108.5 -163.5t-41.5 -201z" />
<glyph unicode="P" horiz-adv-x="1292" d="M37 0l285 1464h559q132 0 223 -45q102 -49 157.5 -145.5t55.5 -224.5q0 -181 -93 -329t-243 -218q-104 -49 -225 -49h-273l-88 -453h-358zM543 760h174q77 0 121 31q51 34 80.5 93.5t29.5 131.5q0 66 -37.5 103.5t-109.5 37.5h-180z" />
<glyph unicode="Q" d="M90 629q0 170 71.5 329.5t188.5 275.5t275 185.5t323 69.5q310 0 500 -179t190 -460q0 -314 -227 -561l123 -125l-225 -209l-121 143q-181 -123 -410 -123q-155 0 -284.5 49t-217.5 135.5t-137 207.5t-49 262zM459 649q0 -155 90 -250.5t233 -95.5q95 0 187 45l-127 137 l225 209l121 -145q80 131 80 278q0 150 -90.5 242t-233.5 92q-91 0 -179.5 -40t-155.5 -107.5t-108.5 -163.5t-41.5 -201z" />
<glyph unicode="R" horiz-adv-x="1337" d="M37 0l285 1464h544q132 0 215 -34q104 -42 161.5 -128.5t57.5 -207.5q0 -69 -17 -139.5t-51.5 -140t-95.5 -127t-141 -89.5v-4q14 -25 37 -88l189 -506h-385l-164 494h-180l-97 -494h-358zM551 801h154q99 0 163 60t64 165q0 63 -40 97t-110 34h-161z" />
<glyph unicode="S" horiz-adv-x="1187" d="M-14 184l213 254q62 -59 157 -96t189 -37q65 0 120.5 31.5t55.5 97.5q0 31 -30 60t-78.5 55.5t-106.5 56.5t-116.5 69.5t-107 87t-78.5 117t-30 152.5q0 84 30.5 158t83 128t122 93t148.5 58.5t161 19.5q145 0 275.5 -41.5t224.5 -128.5l-193 -264q-54 43 -140.5 73.5 t-172.5 30.5q-65 0 -123 -33t-58 -94q0 -32 30.5 -62t79 -56t107.5 -55t117.5 -68t107 -86t79 -117t30.5 -154q0 -191 -155.5 -325t-388.5 -134q-157 0 -309 53.5t-244 155.5z" />
<glyph unicode="T" horiz-adv-x="1290" d="M129 1157l59 307h1244l-60 -307h-442l-225 -1157h-359l225 1157h-442z" />
<glyph unicode="U" horiz-adv-x="1503" d="M115 430q0 58 12 119l178 915h359l-181 -925q-6 -30 -6 -58q0 -87 57 -132.5t158 -45.5q120 0 198 61t101 175l180 925h359l-182 -936q-50 -251 -228.5 -402t-439.5 -151q-116 0 -217.5 30t-179.5 86t-123 143.5t-45 195.5z" />
<glyph unicode="V" horiz-adv-x="1402" d="M150 1464h382l97 -833q4 -41 6.5 -100t2.5 -97l1 -39h4q55 144 100 236l422 833h408l-803 -1464h-385z" />
<glyph unicode="W" horiz-adv-x="2037" d="M180 1464h373l22 -915q0 -20 0.5 -39.5t-0.5 -39.5q-1 -38 -3 -56l-1 -19h4q15 64 54 154l401 915h297l43 -915q1 -25 2 -48q0 -12 -1 -23q-1 -34 -3 -58l-2 -25h4q14 72 47 154l367 915h391l-643 -1464h-416l-39 739q-1 33 -1 64q0 60 5 108h-4q-22 -78 -63 -172 l-328 -739h-412z" />
<glyph unicode="X" horiz-adv-x="1341" d="M-100 0l585 737l-305 727h391l107 -295q15 -41 29 -87.5t21 -72.5l7 -26h4q51 92 121 186l215 295h418l-596 -745l309 -719h-383l-114 301q-16 41 -30.5 86t-20.5 69l-7 25h-4q-51 -88 -121 -180l-223 -301h-403z" />
<glyph unicode="Y" horiz-adv-x="1280" d="M143 1464h387l99 -352q12 -44 24 -97t17 -83l6 -31h4q63 109 129 211l223 352h430l-659 -878l-113 -586h-358l117 600z" />
<glyph unicode="Z" horiz-adv-x="1298" d="M-43 0l45 225l696 801q36 41 71 74t52 46l17 13v4q-45 -6 -111 -6h-518l57 307h1106l-45 -221l-702 -805q-36 -41 -71 -74t-52 -46l-17 -13v-4q47 6 113 6h559l-59 -307h-1141z" />
<glyph unicode="[" horiz-adv-x="724" d="M-12 -195l338 1731h503l-49 -246h-209l-239 -1239h209l-49 -246h-504z" />
<glyph unicode="\" horiz-adv-x="915" d="M231 1536h283l211 -1622h-283z" />
<glyph unicode="]" horiz-adv-x="722" d="M-80 -195l47 246h209l240 1239h-209l49 246h504l-338 -1731h-502z" />
<glyph unicode="^" horiz-adv-x="1290" d="M115 494l415 970h220l415 -970h-297l-229 614l-227 -614h-297z" />
<glyph unicode="_" horiz-adv-x="1257" d="M-137 -266l49 266h1221l-52 -266h-1218z" />
<glyph unicode="`" horiz-adv-x="991" d="M164 1866h338l104 -307h-262z" />
<glyph unicode="a" horiz-adv-x="1120" d="M-16 254q0 89 44 160.5t113 116t160 74t178 41t174 11.5h17q6 27 6 43q0 45 -35 69t-100 24q-49 0 -107.5 -16t-98 -33.5t-99.5 -47.5l-76 267q69 39 199 77.5t251 38.5q58 0 112.5 -9t111 -33t99 -60.5t69 -96.5t26.5 -137q0 -40 -10 -102l-123 -641h-324l13 63 q3 16 7.5 32.5t7.5 24.5l3 9h-4q-19 -25 -46.5 -49t-66.5 -49t-91 -40.5t-107 -15.5q-125 0 -214 75.5t-89 203.5zM330 313q0 -73 88 -73q67 0 132 58t77 124l6 33h-37q-37 0 -75 -5t-85 -18.5t-76.5 -44t-29.5 -74.5z" />
<glyph unicode="b" horiz-adv-x="1298" d="M2 0l283 1464h354l-78 -397l-22 -94h4q51 50 126 78t150 28q191 0 299.5 -123.5t108.5 -334.5q0 -139 -49.5 -261.5t-131 -205.5t-185.5 -131t-212 -48q-90 0 -170 32t-127 97h-4q-2 -26 -8 -59l-8 -45h-330zM438 453q0 -80 42 -132.5t124 -52.5q99 0 181.5 90t82.5 236 q0 86 -44.5 136t-121.5 50q-42 0 -87.5 -22.5t-85.5 -62t-65.5 -103.5t-25.5 -139z" />
<glyph unicode="c" horiz-adv-x="1134" d="M39 459q0 113 47.5 224t131 199t209.5 142.5t271 54.5q275 0 430 -155l-178 -222q-42 36 -109 59t-126 23q-95 0 -169.5 -48t-111.5 -116.5t-37 -140.5q0 -89 55 -149t162 -60q139 0 316 127l90 -268q-80 -66 -207 -110t-248 -44q-127 0 -228.5 38t-165.5 104t-98 153 t-34 189z" />
<glyph unicode="d" horiz-adv-x="1302" d="M41 428q0 143 48.5 266t130 206.5t189 131t224.5 47.5q77 0 151.5 -22.5t114.5 -71.5h4q2 27 6 47l84 432h355l-285 -1464h-332l14 70l15 61h-4q-54 -73 -135 -114.5t-170 -41.5q-192 0 -301 122.5t-109 330.5zM399 455q0 -86 44.5 -136.5t121.5 -50.5q93 0 177.5 93 t84.5 233q0 81 -40.5 133.5t-122.5 52.5q-46 0 -92.5 -22t-85 -62t-63 -103.5t-24.5 -137.5z" />
<glyph unicode="e" horiz-adv-x="1159" d="M39 436q0 181 79 328.5t218 231t311 83.5q218 0 334.5 -112t116.5 -301q0 -88 -39 -207h-666v-13q0 -79 55 -127.5t152 -48.5q144 0 313 107l91 -264q-68 -52 -190.5 -95t-235.5 -43q-131 0 -235.5 37t-169.5 101t-99.5 146.5t-34.5 176.5zM440 662h312q2 12 2 36 q0 55 -30 88t-83 33q-73 0 -124 -42.5t-77 -114.5z" />
<glyph unicode="f" horiz-adv-x="788" d="M78 0l147 760h-129l56 276h129l8 45q13 72 41 130.5t63.5 98.5t81.5 70.5t90 47.5t93.5 27.5t87.5 14t77 3.5q57 0 129 -7l-61 -299q-12 4 -53 4q-181 0 -199 -102l-6 -33h194l-53 -276h-194l-148 -760h-354z" />
<glyph unicode="g" horiz-adv-x="1277" d="M-12 -322l139 254q45 -30 124.5 -48.5t164.5 -18.5q107 0 185 47.5t97 155.5l7 34l8 39h-2q-54 -57 -113.5 -83.5t-140.5 -26.5q-102 0 -181.5 34.5t-128.5 95.5t-74.5 140t-25.5 172q0 112 38.5 219.5t108 194t178.5 139.5t238 53q199 0 283 -112h6q2 20 4 32l10 56h332 l-190 -979q-22 -111 -70 -199t-109.5 -144.5t-138.5 -94t-154 -53t-159 -15.5q-118 0 -235.5 26t-200.5 82zM406 504q0 -80 39.5 -129t121.5 -49q74 0 131.5 49.5t85 117.5t27.5 138q0 153 -170 153q-107 0 -171 -80.5t-64 -199.5z" />
<glyph unicode="h" horiz-adv-x="1284" d="M2 0l285 1464h354l-90 -463l-21 -90h5q45 72 139 120t194 48q71 0 129 -16.5t104.5 -50.5t72.5 -93t26 -139q0 -41 -14 -116l-129 -664h-355l119 606q6 38 6 62q0 90 -94 90q-102 0 -183.5 -86t-103.5 -205l-90 -467h-354z" />
<glyph unicode="i" horiz-adv-x="591" d="M2 0l203 1055h354l-205 -1055h-352zM236 1188l53 276h346l-53 -276h-346z" />
<glyph unicode="j" horiz-adv-x="593" d="M-315 -420l57 295q12 -2 45 -2q32 0 61 5t63 17.5t58.5 41.5t32.5 71l203 1047h354l-209 -1078q-14 -74 -43.5 -135t-66 -102t-83 -72t-90.5 -48.5t-93.5 -28t-87 -14t-76.5 -3.5q-58 0 -125 6zM236 1188l53 276h346l-53 -276h-346z" />
<glyph unicode="k" horiz-adv-x="1220" d="M2 0l285 1464h354l-147 -757h96l278 348h412l-424 -500v-4l236 -551h-375l-154 410h-127l-80 -410h-354z" />
<glyph unicode="l" horiz-adv-x="663" d="M63 281q0 55 15 129l205 1054h354l-197 -1015q-10 -45 -10 -80q0 -68 80 -68q20 0 43 2l-59 -307q-60 -6 -97 -6q-334 0 -334 291z" />
<glyph unicode="m" horiz-adv-x="1861" d="M2 0l205 1055h342l-17 -82l-20 -76h4q140 182 320 182q225 0 280 -178h4q56 73 152 125.5t201 52.5q301 0 301 -288q0 -55 -17 -148l-123 -643h-354l121 614q6 33 6 62q0 82 -70 82q-92 0 -161 -93t-95 -229l-86 -436h-354l121 614q6 33 6 62q0 82 -70 82 q-90 0 -160 -93.5t-96 -228.5l-86 -436h-354z" />
<glyph unicode="n" horiz-adv-x="1284" d="M2 0l205 1055h342l-10 -54q-4 -24 -11 -50t-12 -40l-4 -14h4q46 74 146.5 128t205.5 54q71 0 129 -16.5t104.5 -50.5t72.5 -93t26 -139q0 -41 -14 -116l-129 -664h-355l119 606q6 38 6 62q0 90 -94 90q-102 0 -183.5 -86t-103.5 -205l-90 -467h-354z" />
<glyph unicode="o" horiz-adv-x="1310" d="M37 449q0 135 56.5 254.5t148.5 200.5t210.5 128t241.5 47q240 0 393.5 -130t153.5 -343q0 -135 -56.5 -255t-149 -201t-210.5 -128t-241 -47q-241 0 -394 130t-153 344zM395 465q0 -90 54 -142.5t141 -52.5q113 0 203 88t90 226q0 92 -54 146t-139 54q-111 0 -203 -90.5 t-92 -228.5z" />
<glyph unicode="p" horiz-adv-x="1296" d="M-78 -410l283 1465h319l-10 -54q-3 -16 -7.5 -32.5t-7.5 -25.5l-3 -9h4q56 68 140 106.5t177 38.5q190 0 299 -124t109 -334q0 -139 -49.5 -261.5t-131 -205.5t-185.5 -131t-212 -48q-174 0 -276 111h-4q-5 -37 -15 -90l-78 -406h-352zM438 455q0 -82 41 -134.5 t123 -52.5q100 0 182 90t82 236q0 86 -44 136t-120 50q-42 0 -87.5 -22.5t-85.5 -62t-65.5 -103t-25.5 -137.5z" />
<glyph unicode="q" horiz-adv-x="1300" d="M41 428q0 143 48.5 266t130 206.5t189 131t224.5 47.5q193 0 285 -112h4q2 22 8 57l6 31h332l-285 -1465h-354l80 414l22 90h-4q-44 -46 -114.5 -82.5t-161.5 -36.5q-192 0 -301 122.5t-109 330.5zM399 455q0 -86 44.5 -136.5t121.5 -50.5q93 0 177.5 93t84.5 233 q0 81 -40.5 133.5t-122.5 52.5q-46 0 -92.5 -22t-85 -62t-63 -103.5t-24.5 -137.5z" />
<glyph unicode="r" horiz-adv-x="876" d="M2 0l205 1055h340l-35 -178l-16 -66h2q53 111 155 186.5t211 75.5q16 0 62 -4l-68 -348q-60 6 -70 6q-34 0 -73 -10.5t-84.5 -37.5t-84 -67.5t-71.5 -106t-49 -147.5l-70 -358h-354z" />
<glyph unicode="s" horiz-adv-x="958" d="M-35 119l168 237q47 -42 122 -68t148 -26q113 0 113 62q0 21 -23 38t-60 31t-81.5 30.5t-89 42t-81.5 59t-60 87t-23 121.5q0 154 128.5 250t318.5 96q215 0 387 -116l-139 -246q-42 33 -115 54.5t-143 21.5q-109 0 -109 -60q0 -20 23 -36t60 -30.5t82 -31t90 -42.5 t82 -61t60 -91t23 -126q0 -153 -118.5 -246.5t-309.5 -93.5q-120 0 -240.5 38.5t-212.5 105.5z" />
<glyph unicode="t" horiz-adv-x="833" d="M70 760l53 276h145l60 303h340l-60 -303h223l-53 -276h-223l-57 -301q-6 -27 -6 -56q0 -102 155 -102q28 0 55 2l-59 -307q-87 -6 -94 -6q-90 0 -164.5 19t-134.5 58t-93.5 105.5t-33.5 155.5q0 34 10 82l70 350h-133z" />
<glyph unicode="u" horiz-adv-x="1269" d="M51 274q0 36 15 117l129 664h354l-119 -606q-6 -37 -6 -62q0 -90 94 -90q98 0 175 85.5t100 205.5l90 467h354l-205 -1055h-342l10 53q4 24 11 50t11 41l5 14h-4q-47 -75 -141.5 -129t-198.5 -54q-71 0 -129 16.5t-104.5 50.5t-72.5 93t-26 139z" />
<glyph unicode="v" horiz-adv-x="1153" d="M92 1055h350l54 -561l4 -183h4q39 113 74 183l272 561h375l-566 -1055h-409z" />
<glyph unicode="w" horiz-adv-x="1689" d="M104 1055h353l8 -623q0 -25 -2 -52.5t-4 -42.5l-2 -15h4q1 0 5 14.5t13.5 42.5t20.5 53l268 623h297l22 -623l-4 -110h4q10 53 35 110l252 623h377l-502 -1055h-393l-22 487v113h-5q-16 -56 -41 -113l-215 -487h-378z" />
<glyph unicode="x" horiz-adv-x="1124" d="M-96 0l442 532l-250 523h373l86 -226l23 -77h4q27 50 45 77l159 226h410l-451 -543l244 -512h-364l-95 227l-18 62h-4q-23 -44 -37 -62l-164 -227h-403z" />
<glyph unicode="y" horiz-adv-x="1161" d="M-162 -348l154 246q45 -33 104 -33q126 0 191 106l30 49l-247 1035h368l86 -523q4 -25 7 -64t3 -65l1 -26h4q36 92 63 149l236 529h397l-660 -1168q-92 -162 -215.5 -239.5t-244.5 -77.5q-150 0 -277 82z" />
<glyph unicode="z" horiz-adv-x="1114" d="M-45 0l33 176l469 486q29 29 56 53t39 33l13 10v4q-24 -4 -90 -4h-360l59 297h940l-33 -178l-469 -486q-28 -28 -56.5 -52t-43.5 -34l-14 -10v-4q28 6 96 6h383l-59 -297h-963z" />
<glyph unicode="{" horiz-adv-x="808" d="M49 524l60 307q81 3 137.5 57.5t75.5 145.5l40 211q15 78 53 135t83.5 88t107.5 49.5t112 23.5t111 5q32 0 86 -4l-49 -254q-12 4 -51 4q-26 0 -49.5 -4.5t-50 -15t-45.5 -34t-25 -56.5l-53 -271q-18 -86 -79.5 -146t-143.5 -87v-4q60 -21 94.5 -81.5t34.5 -137.5 q0 -29 -6 -66l-46 -229q-2 -8 -2 -25q0 -86 131 -86q16 0 52 4l-49 -254q-36 -4 -91 -4q-35 0 -73.5 5.5t-89 24t-89 47.5t-65.5 82.5t-27 123.5q0 36 9 80l32 170q6 30 6 53q0 62 -38 101t-103 42z" />
<glyph unicode="|" horiz-adv-x="729" d="M223 -338v1980h295v-1980h-295z" />
<glyph unicode="}" horiz-adv-x="808" d="M-84 -201l49 254q28 -4 51 -4q36 0 67.5 7.5t63 33.5t39.5 70l58 284q18 87 78.5 147.5t144.5 86.5v4q-56 20 -92.5 76.5t-36.5 142.5q0 29 6 66l41 215q2 8 2 24q0 86 -131 86q-27 0 -51 -4l49 254q40 4 90 4q36 0 74 -5.5t88.5 -23.5t89 -47t65.5 -82.5t27 -123.5 q0 -22 -8 -80l-29 -156q-6 -30 -6 -53q0 -64 38 -102.5t103 -41.5l-59 -307q-17 0 -37 -4t-48 -17.5t-51.5 -34.5t-45 -59t-31.5 -87l-45 -226q-13 -65 -41 -116t-67 -82.5t-81 -53t-93.5 -31.5t-93.5 -14t-91 -4q-24 0 -86 4z" />
<glyph unicode="~" horiz-adv-x="1273" d="M88 391q0 416 356 416q53 0 99 -17t78 -41t60 -48t57.5 -41t58.5 -17q51 0 81.5 40t30.5 116h273q0 -206 -89 -311t-266 -105q-53 0 -98.5 17t-77.5 41t-60 48t-58 41t-60 17q-49 0 -80 -40.5t-31 -115.5h-274z" />
<glyph unicode="&#xa2;" horiz-adv-x="1228" d="M94 647q0 113 33.5 215.5t89 178.5t128 135t151 93.5t157.5 45.5l33 172h225l-34 -187q116 -29 204 -124.5t111 -219.5l-318 -114q-10 66 -51.5 107.5t-111.5 41.5q-92 0 -176 -97.5t-84 -236.5q0 -88 43.5 -135t115.5 -47q70 0 131.5 40t100.5 106l305 -129 q-83 -142 -210.5 -237t-285.5 -114l-33 -166h-225l37 189q-152 47 -244 175t-92 308z" />
<glyph unicode="&#xa3;" horiz-adv-x="1228" d="M-25 0l60 307h110l60 305h-88l45 230h86l45 225q37 188 187 305t354 117q113 0 218.5 -49t178.5 -135l-223 -222q-34 36 -85 60t-100 24q-60 0 -109 -36.5t-61 -94.5l-39 -194h340l-45 -230h-338l-59 -305h594l-59 -307h-1072z" />
<glyph unicode="&#xa5;" horiz-adv-x="1228" d="M43 342l37 197h334l12 57l-31 100h-284l39 197h188l-170 571h391l57 -293q12 -60 23.5 -128t16.5 -106l6 -38h4q59 139 135 272l162 293h426l-394 -571h191l-39 -197h-287l-67 -100l-13 -57h336l-37 -197h-336l-67 -342h-367l68 342h-334z" />
<glyph unicode="&#xa8;" horiz-adv-x="993" d="M16 1579l58 287h258l-58 -287h-258zM444 1579l58 287h258l-58 -287h-258z" />
<glyph unicode="&#xa9;" d="M125 733q0 154 58 293.5t156.5 240.5t234.5 160.5t286 59.5q153 0 290.5 -59.5t237 -160.5t158 -240.5t58.5 -293.5t-58.5 -294.5t-158 -242t-237.5 -161.5t-290 -60q-120 0 -232 38.5t-202.5 108.5t-158.5 163t-105 209t-37 239zM356 733q0 -150 66 -276t182 -198.5 t256 -72.5q143 0 261 72.5t185.5 198t67.5 276.5q0 150 -67.5 274.5t-185.5 196.5t-261 72q-140 0 -256 -72t-182 -197t-66 -274zM512 727q0 161 104.5 272t247.5 111q118 0 207.5 -63t124.5 -173l-205 -79q-11 41 -43.5 70.5t-75.5 29.5q-48 0 -84 -47.5t-36 -120.5 q0 -81 33 -124.5t87 -43.5q40 0 72.5 28t46.5 72l205 -79q-33 -96 -116.5 -166t-215.5 -70q-143 0 -247.5 111t-104.5 272z" />
<glyph unicode="&#xab;" horiz-adv-x="1359" d="M57 578l392 421h335l-413 -436l266 -405h-313zM590 578l436 421h342l-465 -436l266 -405h-313z" />
<glyph unicode="&#xad;" horiz-adv-x="886" d="M86 434l59 307h643l-59 -307h-643z" />
<glyph unicode="&#xae;" d="M125 733q0 154 58 293.5t156.5 240.5t234.5 160.5t286 59.5q153 0 290.5 -59.5t237 -160.5t158 -240.5t58.5 -293.5t-58.5 -294.5t-158 -242t-237.5 -161.5t-290 -60q-120 0 -232 38.5t-202.5 108.5t-158.5 163t-105 209t-37 239zM356 733q0 -150 66 -276t182 -198.5 t256 -72.5q143 0 261 72.5t185.5 198t67.5 276.5q0 150 -67.5 274.5t-185.5 196.5t-261 72q-140 0 -256 -72t-182 -197t-66 -274zM594 383v711h334q115 0 182.5 -64t67.5 -172q0 -76 -40.5 -123.5t-78.5 -58.5v-4q8 -6 26 -41l129 -248h-241l-101 242h-57v-242h-221z M815 772h55q40 0 61 22.5t21 63.5q0 84 -78 84h-59v-170z" />
<glyph unicode="&#xb4;" horiz-adv-x="991" d="M90 1559l227 307h363l-303 -307h-287z" />
<glyph unicode="&#xb8;" horiz-adv-x="991" d="M137 -412l33 174q11 -6 41.5 -11t48.5 -5q38 0 63 13.5t25 39.5q0 37 -76 37q-15 0 -55 -4l117 227l143 -34l-43 -99q50 -9 88.5 -42.5t38.5 -92.5q0 -61 -25.5 -106t-67 -69t-86 -35t-91.5 -11q-81 0 -154 18z" />
<glyph unicode="&#xbb;" horiz-adv-x="1359" d="M-20 158l464 436l-266 405h314l266 -419l-436 -422h-342zM563 158l414 436l-266 405h313l266 -419l-391 -422h-336z" />
<glyph unicode="&#x2c6;" horiz-adv-x="995" d="M-29 1559l265 307h344l141 -307h-266l-64 167h-4l-129 -167h-287z" />
<glyph unicode="&#x2da;" horiz-adv-x="993" d="M156 1679q0 96 77 148.5t173 52.5q85 0 144.5 -40.5t59.5 -115.5q0 -48 -23.5 -86.5t-61.5 -61.5t-81 -34.5t-86 -11.5q-85 0 -143.5 38.5t-58.5 110.5zM311 1686q0 -25 15.5 -39.5t42.5 -14.5q36 0 62 25t26 63q0 26 -16 42t-44 16q-35 0 -60.5 -26t-25.5 -66z" />
<glyph unicode="&#x2dc;" horiz-adv-x="993" d="M-47 1559q64 313 305 313q35 0 64 -12.5t48.5 -31t36 -36.5t35 -30.5t37.5 -12.5q69 0 90 117h232q-30 -152 -106.5 -233t-196.5 -81q-33 0 -62 12.5t-49.5 31t-38.5 36.5t-37 30.5t-37 12.5q-66 0 -90 -116h-231z" />
<glyph unicode="&#x400;" horiz-adv-x="1181" d="M37 0l287 1464h915l-59 -307h-559l-52 -266h445l-62 -307h-444l-53 -277h587l-59 -307h-946zM545 1866h338l104 -307h-262z" />
<glyph unicode="&#x401;" horiz-adv-x="1181" d="M37 0l287 1464h915l-59 -307h-559l-52 -266h445l-62 -307h-444l-53 -277h587l-59 -307h-946zM469 1579l57 287h258l-57 -287h-258zM897 1579l57 287h258l-57 -287h-258z" />
<glyph unicode="&#x402;" horiz-adv-x="1558" d="M125 1157l59 307h1162l-60 -307h-442l-43 -221l-19 -66h4q45 23 133.5 43.5t180.5 20.5q184 0 292.5 -113t108.5 -289q0 -105 -40.5 -205.5t-112 -178.5t-178 -125.5t-228.5 -47.5q-40 0 -115 7l60 297q14 -5 39 -5q91 0 153 59t62 140q0 67 -45.5 106t-130.5 39 q-122 0 -240 -67l-107 -551h-358l225 1157h-360z" />
<glyph unicode="&#x403;" horiz-adv-x="1077" d="M37 0l285 1464h897l-60 -307h-538l-226 -1157h-358zM582 1559l227 307h362l-303 -307h-286z" />
<glyph unicode="&#x404;" horiz-adv-x="1476" d="M88 614q0 168 70.5 328t189.5 280.5t287 193.5t352 73q150 0 296 -51t237 -152l-195 -268q-63 66 -159.5 106.5t-192.5 40.5q-151 0 -268.5 -78t-182.5 -210h596l-55 -287h-602q3 -150 93 -220.5t249 -70.5q209 0 424 166l153 -266q-111 -99 -285 -161.5t-339 -62.5 q-154 0 -280 47t-211 131.5t-131 202.5t-46 258z" />
<glyph unicode="&#x405;" horiz-adv-x="1187" d="M-14 184l213 254q62 -59 157 -96t189 -37q65 0 120.5 31.5t55.5 97.5q0 31 -30 60t-78.5 55.5t-106.5 56.5t-116.5 69.5t-107 87t-78.5 117t-30 152.5q0 84 30.5 158t83 128t122 93t148.5 58.5t161 19.5q145 0 275.5 -41.5t224.5 -128.5l-193 -264q-54 43 -140.5 73.5 t-172.5 30.5q-65 0 -123 -33t-58 -94q0 -32 30.5 -62t79 -56t107.5 -55t117.5 -68t107 -86t79 -117t30.5 -154q0 -191 -155.5 -325t-388.5 -134q-157 0 -309 53.5t-244 155.5z" />
<glyph unicode="&#x406;" horiz-adv-x="669" d="M37 0l285 1464h358l-285 -1464h-358z" />
<glyph unicode="&#x407;" horiz-adv-x="669" d="M37 0l285 1464h358l-285 -1464h-358zM182 1579l58 287h258l-58 -287h-258zM610 1579l58 287h258l-58 -287h-258z" />
<glyph unicode="&#x408;" horiz-adv-x="1153" d="M-6 365q0 57 10 106l16 86h359l-14 -76q-9 -56 -9 -67q0 -111 109 -111q59 0 100 38.5t56 115.5l137 700h-391l59 307h750l-201 -1034q-28 -149 -107.5 -254t-184 -153t-226.5 -48q-124 0 -227.5 42.5t-169.5 133t-66 214.5z" />
<glyph unicode="&#x409;" horiz-adv-x="2048" d="M-80 -10l62 325q56 4 99.5 20t86.5 54.5t77 102t65.5 163.5t58.5 238l110 571h969l-105 -534h224q192 0 308 -119.5t116 -302.5q0 -101 -43 -194.5t-115.5 -162.5t-175.5 -110t-217 -41h-635l225 1157h-246l-51 -264q-29 -149 -63.5 -265t-82.5 -221t-110 -179.5 t-142.5 -129.5t-184 -81.5t-230.5 -26.5zM1223 307h182q86 0 153.5 52.5t67.5 138.5q0 57 -43 91t-123 34h-176z" />
<glyph unicode="&#x40a;" horiz-adv-x="2129" d="M37 0l285 1464h358l-107 -544h494l107 544h356l-105 -544h230q183 0 300.5 -120.5t117.5 -297.5q0 -208 -159.5 -355t-397.5 -147h-629l119 612h-492l-119 -612h-358zM1305 307h182q84 0 151.5 47.5t67.5 128.5q0 61 -42 95t-122 34h-176z" />
<glyph unicode="&#x40b;" horiz-adv-x="1558" d="M125 1157l59 307h1162l-60 -307h-442l-43 -217l-19 -70h4q159 64 324 64q184 0 275.5 -96t91.5 -260q0 -69 -15 -142l-86 -436h-366l77 403q9 61 9 76q0 66 -36.5 98.5t-121.5 32.5q-114 0 -211 -53l-109 -557h-358l225 1157h-360z" />
<glyph unicode="&#x40c;" horiz-adv-x="1396" d="M37 0l285 1464h358l-111 -565h138l419 565h416l-555 -719v-4l266 -741h-381l-194 594h-168l-115 -594h-358zM762 1559l227 307h363l-303 -307h-287z" />
<glyph unicode="&#x40d;" horiz-adv-x="1548" d="M37 0l285 1464h358l-133 -684q-8 -41 -24.5 -103.5t-28.5 -104.5l-13 -42h4q96 154 172 250l539 684h363l-285 -1464h-359l134 682q7 41 23 103.5t28 104.5l12 42h-4q-94 -154 -170 -250l-541 -682h-360zM670 1866h338l104 -307h-262z" />
<glyph unicode="&#x40e;" horiz-adv-x="1290" d="M8 86l174 256q65 -61 170 -61q84 0 135 81l-350 1102h369l145 -526q13 -46 24 -96t16 -76l5 -27h4q38 95 93 197l276 528h399l-637 -1097q-37 -66 -68.5 -113.5t-79 -103.5t-95 -91.5t-112.5 -59.5t-136 -24q-190 0 -332 111zM494 1788q0 29 10 78h266q-6 -21 -6 -45 q0 -43 26.5 -72t77.5 -29q58 0 100.5 35t53.5 111h258q-13 -88 -54 -154.5t-101 -105.5t-128.5 -57.5t-146.5 -18.5q-161 0 -258.5 72t-97.5 186z" />
<glyph unicode="&#x40f;" horiz-adv-x="1536" d="M37 0l285 1464h358l-225 -1159h508l225 1159h358l-284 -1464h-453l-57 -287h-318l58 287h-455z" />
<glyph unicode="&#x410;" horiz-adv-x="1368" d="M-117 0l762 1464h412l203 -1464h-359l-31 307h-456l-148 -307h-383zM553 594h289l-29 285q-4 41 -7 103.5t-4 105.5l-1 42h-4q-60 -159 -105 -251z" />
<glyph unicode="&#x411;" horiz-adv-x="1300" d="M37 0l285 1464h952l-60 -307h-593l-46 -227h230q193 0 305.5 -112t112.5 -294q0 -101 -44 -197t-117.5 -168t-177.5 -115.5t-218 -43.5h-629zM455 307h182q85 0 150 52.5t65 138.5q0 58 -40.5 91.5t-119.5 33.5h-176z" />
<glyph unicode="&#x412;" horiz-adv-x="1331" d="M37 0l285 1464h471q164 0 256 -32q110 -38 170.5 -121.5t60.5 -194.5q0 -102 -61 -197.5t-166 -148.5v-4q90 -33 133 -109.5t43 -171.5q0 -168 -99.5 -285t-259.5 -167q-98 -33 -233 -33h-600zM455 307h215q55 0 100 25q41 26 65.5 71t24.5 93q0 52 -32.5 83t-96.5 31 h-217zM569 897h185q71 0 114 50t43 114q0 96 -112 96h-178z" />
<glyph unicode="&#x413;" horiz-adv-x="1077" d="M37 0l285 1464h897l-60 -307h-538l-226 -1157h-358z" />
<glyph unicode="&#x414;" horiz-adv-x="1587" d="M-154 -287l117 592h152q128 173 213.5 386t126.5 427l67 346h994l-226 -1159h164l-117 -592h-317l57 287h-846l-57 -287h-328zM496 305h436l164 852h-293l-12 -67q-36 -190 -115.5 -415.5t-179.5 -369.5z" />
<glyph unicode="&#x415;" horiz-adv-x="1181" d="M37 0l287 1464h915l-59 -307h-559l-52 -266h445l-62 -307h-444l-53 -277h587l-59 -307h-946z" />
<glyph unicode="&#x416;" horiz-adv-x="2084" d="M-94 0l555 793v4l-271 667h365l223 -565h137l111 565h358l-110 -565h137l363 565h426l-506 -731v-4l243 -729h-368l-185 594h-170l-114 -594h-359l115 594h-137l-393 -594h-420z" />
<glyph unicode="&#x417;" horiz-adv-x="1171" d="M-37 199l205 229q55 -65 133.5 -102t157.5 -37q96 0 165.5 50.5t69.5 139.5q0 111 -149 111h-211l55 287h178q79 0 141 51t62 129q0 121 -143 121q-138 0 -310 -121l-127 260q119 93 249.5 132.5t246.5 39.5q130 0 233 -39.5t166.5 -124t63.5 -203.5q0 -123 -70.5 -220.5 t-189.5 -145.5l-2 -4q78 -37 126 -113t48 -174q0 -88 -34 -167t-92.5 -137t-135 -100.5t-163 -64t-175.5 -21.5q-149 0 -282.5 60t-215.5 164z" />
<glyph unicode="&#x418;" horiz-adv-x="1548" d="M37 0l285 1464h358l-133 -684q-8 -41 -24.5 -103.5t-28.5 -104.5l-13 -42h4q96 154 172 250l539 684h363l-285 -1464h-359l134 682q7 41 23 103.5t28 104.5l12 42h-4q-94 -154 -170 -250l-541 -682h-360z" />
<glyph unicode="&#x419;" horiz-adv-x="1548" d="M37 0l285 1464h358l-133 -684q-8 -41 -24.5 -103.5t-28.5 -104.5l-13 -42h4q96 154 172 250l539 684h363l-285 -1464h-359l134 682q7 41 23 103.5t28 104.5l12 42h-4q-94 -154 -170 -250l-541 -682h-360zM618 1788q0 24 11 78h266q-6 -21 -6 -45q0 -43 26.5 -72t77.5 -29 q58 0 100.5 35t53.5 111h258q-13 -88 -54 -154.5t-101 -105.5t-128.5 -57.5t-146.5 -18.5q-161 0 -259 72t-98 186z" />
<glyph unicode="&#x41a;" horiz-adv-x="1396" d="M37 0l285 1464h358l-111 -565h138l419 565h416l-555 -719v-4l266 -741h-381l-194 594h-168l-115 -594h-358z" />
<glyph unicode="&#x41b;" horiz-adv-x="1462" d="M-90 -16l63 325q56 7 102 29t93.5 70t86 121.5t75 188t65.5 265.5l94 481h984l-285 -1464h-359l226 1157h-285l-35 -178q-70 -358 -183 -578.5t-269 -318.5t-373 -98z" />
<glyph unicode="&#x41c;" horiz-adv-x="1798" d="M-14 0l391 1464h391l96 -618q6 -42 12.5 -102.5t9.5 -99.5l3 -40h4q72 146 123 242l334 618h393l-166 -1464h-352l84 659q6 49 18 110.5t21 98.5l8 37h-4q-78 -156 -129 -246l-238 -423h-311l-74 423q-7 41 -15 103.5t-12 104.5l-4 42h-4q-18 -139 -47 -250l-172 -659 h-360z" />
<glyph unicode="&#x41d;" horiz-adv-x="1560" d="M37 0l285 1464h358l-115 -585h533l114 585h359l-285 -1464h-358l110 573h-532l-111 -573h-358z" />
<glyph unicode="&#x41e;" d="M90 629q0 170 71.5 329.5t188.5 275.5t275 185.5t323 69.5q310 0 500 -179t190 -460q0 -173 -72.5 -335.5t-191 -280t-276 -188.5t-320.5 -71q-155 0 -284.5 49t-217.5 135.5t-137 207.5t-49 262zM459 649q0 -155 90 -250.5t233 -95.5q89 0 177 41t156 110t110.5 167.5 t42.5 205.5q0 150 -90.5 242t-233.5 92q-91 0 -179.5 -40t-155.5 -107.5t-108.5 -163.5t-41.5 -201z" />
<glyph unicode="&#x41f;" horiz-adv-x="1548" d="M37 0l285 1464h1237l-285 -1464h-359l226 1159h-520l-226 -1159h-358z" />
<glyph unicode="&#x420;" horiz-adv-x="1284" d="M37 0l285 1464h559q132 0 223 -45q102 -49 157.5 -145.5t55.5 -224.5q0 -181 -93 -329t-243 -218q-104 -49 -225 -49h-273l-88 -453h-358zM543 760h174q77 0 121 31q51 34 80.5 93.5t29.5 131.5q0 66 -37.5 103.5t-109.5 37.5h-180z" />
<glyph unicode="&#x421;" horiz-adv-x="1468" d="M92 625q0 173 68.5 333t184 276t275 185.5t332.5 69.5q162 0 314 -52t252 -159l-203 -246q-67 57 -161 93t-189 36q-94 0 -177 -31t-141 -82.5t-100.5 -118t-63 -138.5t-20.5 -142q0 -150 87.5 -248t252.5 -98q209 0 428 174l139 -284q-105 -95 -267.5 -156.5 t-320.5 -61.5q-210 0 -367.5 83t-240 230t-82.5 337z" />
<glyph unicode="&#x422;" horiz-adv-x="1294" d="M131 1157l59 307h1244l-60 -307h-442l-225 -1157h-359l225 1157h-442z" />
<glyph unicode="&#x423;" horiz-adv-x="1290" d="M8 86l174 256q65 -61 170 -61q84 0 135 81l-350 1102h369l145 -526q13 -46 24 -96t16 -76l5 -27h4q38 95 93 197l276 528h399l-637 -1097q-37 -66 -68.5 -113.5t-79 -103.5t-95 -91.5t-112.5 -59.5t-136 -24q-190 0 -332 111z" />
<glyph unicode="&#x424;" horiz-adv-x="1767" d="M76 700q0 141 57.5 265.5t159.5 215.5t248.5 145.5t318.5 59.5l31 150h358l-30 -150q242 0 395 -148t153 -380q0 -190 -104.5 -350t-285.5 -253.5t-396 -94.5l-37 -185h-358l37 185q-242 0 -394.5 150.5t-152.5 389.5zM440 713q0 -111 65.5 -182.5t174.5 -71.5l123 628 q-148 -3 -255.5 -115t-107.5 -259zM1038 459q95 2 180 57.5t135 143.5t50 182q0 108 -66.5 176.5t-175.5 68.5z" />
<glyph unicode="&#x425;" horiz-adv-x="1341" d="M-100 0l585 737l-305 727h391l107 -295q15 -41 29 -87.5t21 -72.5l7 -26h4q51 92 121 186l215 295h418l-596 -745l309 -719h-383l-114 301q-16 41 -30.5 86t-20.5 69l-7 25h-4q-51 -88 -121 -180l-223 -301h-403z" />
<glyph unicode="&#x426;" horiz-adv-x="1628" d="M37 0l285 1464h358l-225 -1159h508l225 1159h358l-225 -1159h182l-117 -592h-317l57 287h-1089z" />
<glyph unicode="&#x427;" horiz-adv-x="1411" d="M131 868q0 58 16 140l89 456h366l-78 -403q-8 -36 -8 -74q0 -71 38.5 -107t123.5 -36q73 0 147.5 23.5t124.5 54.5l105 542h366l-284 -1464h-367l100 520l19 66h-4q-180 -68 -332 -68q-201 0 -311.5 92.5t-110.5 257.5z" />
<glyph unicode="&#x428;" horiz-adv-x="2123" d="M37 0l285 1464h358l-225 -1159h368l226 1159h358l-225 -1159h368l226 1159h358l-285 -1464h-1812z" />
<glyph unicode="&#x429;" horiz-adv-x="2215" d="M37 0l285 1464h358l-225 -1159h368l226 1159h358l-225 -1159h368l226 1159h358l-225 -1159h182l-117 -592h-317l57 287h-1677z" />
<glyph unicode="&#x42a;" horiz-adv-x="1503" d="M111 1157l59 307h727l-88 -452h240q185 0 293 -118t108 -312q0 -109 -42.5 -213.5t-116.5 -186.5t-184 -132t-235 -50h-618l225 1157h-368zM672 307h182q100 0 165.5 74t65.5 178q0 66 -41.5 106t-117.5 40h-176z" />
<glyph unicode="&#x42b;" horiz-adv-x="1898" d="M37 0l285 1464h358l-88 -452h219q185 0 293 -118t108 -312q0 -109 -42.5 -213.5t-116.5 -186.5t-183.5 -132t-234.5 -50h-598zM455 307h161q100 0 165 74t65 178q0 66 -41 106t-117 40h-156zM1266 0l284 1464h359l-285 -1464h-358z" />
<glyph unicode="&#x42c;" horiz-adv-x="1286" d="M37 0l285 1464h358l-88 -452h239q186 0 294 -118t108 -312q0 -109 -42.5 -213.5t-116.5 -186.5t-184 -132t-235 -50h-618zM455 307h182q100 0 165.5 74t65.5 178q0 66 -41.5 106t-117.5 40h-177z" />
<glyph unicode="&#x42d;" horiz-adv-x="1472" d="M-27 201l197 245q68 -70 168 -108.5t207 -38.5q161 0 281.5 79.5t183.5 211.5h-609l56 287h606q-10 148 -98 218t-230 70q-109 0 -207.5 -38.5t-203.5 -120.5l-152 266q134 106 267 161.5t313 55.5q165 0 296.5 -49.5t215 -136t127 -200.5t43.5 -247q0 -171 -70 -332 t-188.5 -282t-285 -194t-349.5 -73q-159 0 -309 57t-259 169z" />
<glyph unicode="&#x42e;" horiz-adv-x="2277" d="M37 0l285 1464h358l-115 -585h183q56 173 178 312t287.5 218.5t342.5 79.5q152 0 279.5 -48t215.5 -132.5t136.5 -202.5t48.5 -256q0 -173 -72 -335.5t-189 -280t-272.5 -188.5t-316.5 -71q-291 0 -473.5 166t-201.5 432h-205l-111 -573h-358zM1077 649q0 -154 87.5 -250 t226.5 -96q88 0 174 41t152.5 110t107.5 167.5t41 205.5q0 150 -87.5 242t-226.5 92q-89 0 -175.5 -40t-152.5 -107.5t-106.5 -163.5t-40.5 -201z" />
<glyph unicode="&#x42f;" horiz-adv-x="1353" d="M-94 0l370 471q17 22 38.5 46t34.5 37l13 13v4q-165 111 -165 334q0 152 57.5 267.5t161.5 187.5q149 104 366 104h582l-285 -1464h-358l96 494h-123l-372 -494h-416zM559 940q0 -78 40 -113.5t120 -35.5h155l72 366h-121q-130 0 -196 -55q-70 -57 -70 -162z" />
<glyph unicode="&#x430;" horiz-adv-x="1118" d="M-18 254q0 89 44 160.5t113 116t160 74t178 41t174 11.5h17q6 27 6 43q0 45 -35 69t-100 24q-49 0 -107.5 -16t-99 -33.5t-99.5 -47.5l-75 267q69 39 199 77.5t251 38.5q58 0 112.5 -9t111 -33t99 -60.5t69 -96.5t26.5 -137q0 -40 -10 -102l-123 -641h-324l13 63 q3 16 7.5 32.5t7.5 24.5l3 9h-4q-19 -25 -46.5 -49t-66.5 -49t-91 -40.5t-107 -15.5q-125 0 -214 75.5t-89 203.5zM328 313q0 -73 88 -73q67 0 132 58t77 124l6 33h-37q-37 0 -75 -5t-85 -18.5t-76.5 -44t-29.5 -74.5z" />
<glyph unicode="&#x431;" horiz-adv-x="1267" d="M63 500q0 227 107 446q88 177 241 289t394 186l373 115l67 -285l-434 -127q-150 -42 -227 -94t-103 -151h4q116 92 293 92q188 0 297 -112.5t109 -295.5q0 -117 -47.5 -224.5t-129.5 -187.5t-200 -128t-252 -48q-235 0 -363.5 141.5t-128.5 383.5zM412 436 q0 -77 47.5 -124.5t120.5 -47.5q98 0 172.5 78t74.5 184q0 80 -48.5 124t-123.5 44q-105 0 -174 -78.5t-69 -179.5z" />
<glyph unicode="&#x432;" horiz-adv-x="1165" d="M0 0l207 1055h565q147 0 233.5 -64.5t86.5 -179.5q0 -78 -43.5 -150t-130.5 -112v-2q63 -25 94.5 -83.5t31.5 -129.5q0 -79 -40 -144t-105.5 -105.5t-146.5 -62.5t-166 -22h-586zM397 221h156q53 0 95 37t42 92q0 38 -24 60t-70 22h-158zM479 639h133q52 0 89.5 35.5 t37.5 83.5q0 35 -23 56.5t-69 21.5h-129z" />
<glyph unicode="&#x433;" horiz-adv-x="897" d="M0 0l207 1055h743l-59 -297h-389l-148 -758h-354z" />
<glyph unicode="&#x434;" horiz-adv-x="1335" d="M-135 -246l100 527h123q75 98 130.5 226t80.5 257l55 291h871l-150 -774h152l-103 -527h-315l47 246h-618l-48 -246h-325zM453 281h270l94 493h-184l-8 -39q-26 -124 -73 -250.5t-99 -203.5z" />
<glyph unicode="&#x435;" horiz-adv-x="1159" d="M39 436q0 181 79 328.5t218 231t311 83.5q218 0 334.5 -112t116.5 -301q0 -88 -39 -207h-666v-13q0 -79 55 -127.5t152 -48.5q144 0 313 107l91 -264q-68 -52 -190.5 -95t-235.5 -43q-131 0 -235.5 37t-169.5 101t-99.5 146.5t-34.5 176.5zM440 662h312q2 12 2 36 q0 55 -30 88t-83 33q-73 0 -124 -42.5t-77 -114.5z" />
<glyph unicode="&#x436;" horiz-adv-x="1695" d="M-94 0l381 561v4l-162 490h344l119 -375h96l74 375h329l-73 -375h92l256 375h383l-387 -541v-2l196 -512h-362l-127 383h-109l-75 -383h-330l76 383h-99l-241 -383h-381z" />
<glyph unicode="&#x437;" horiz-adv-x="968" d="M-53 125l153 221q51 -45 117.5 -74.5t130.5 -29.5q59 0 103.5 28.5t44.5 85.5q0 33 -22 49.5t-79 16.5h-129l47 233h107q52 0 93.5 26t41.5 75q0 65 -106 65q-112 0 -256 -80l-84 224q78 52 190 83t231 31q176 0 276.5 -76t100.5 -200q0 -89 -50 -154t-136 -104v-4 q127 -80 127 -219q0 -110 -69 -190.5t-174.5 -118.5t-229.5 -38q-115 0 -229.5 39t-198.5 111z" />
<glyph unicode="&#x438;" horiz-adv-x="1267" d="M0 0l207 1055h328l-89 -445l-26 -108h4q29 47 82 108l381 445h348l-207 -1055h-328l86 440q4 24 11 52l11 44l5 15h-4q-33 -52 -82 -109l-379 -442h-348z" />
<glyph unicode="&#x439;" horiz-adv-x="1267" d="M0 0l207 1055h328l-89 -445l-26 -108h4q29 47 82 108l381 445h348l-207 -1055h-328l86 440q4 24 11 52l11 44l5 15h-4q-33 -52 -82 -109l-379 -442h-348zM424 1382q0 29 10 78h266q-6 -21 -6 -45q0 -43 27 -71.5t78 -28.5q58 0 100 34.5t53 110.5h258q-13 -88 -54 -154.5 t-101 -105.5t-128.5 -57.5t-146.5 -18.5q-161 0 -258.5 72t-97.5 186z" />
<glyph unicode="&#x43a;" horiz-adv-x="1210" d="M0 0l207 1055h354l-74 -371h107l256 371h405l-407 -545v-4l244 -506h-383l-168 387h-111l-76 -387h-354z" />
<glyph unicode="&#x43b;" horiz-adv-x="1222" d="M-78 -10l60 309q33 4 59 14t59.5 37.5t60 70.5t53 119t46.5 177l66 338h864l-205 -1055h-354l149 774h-176l-10 -59q-26 -135 -61.5 -241t-91 -199t-126.5 -154t-170.5 -96t-222.5 -35z" />
<glyph unicode="&#x43c;" horiz-adv-x="1560" d="M-45 0l305 1055h402l73 -463l13 -127h4q32 74 61 127l254 463h408l-107 -1055h-336l72 485l33 181h-4q-45 -90 -84 -156l-211 -369h-287l-68 369l-26 160h-4q-19 -103 -37 -185l-121 -485h-340z" />
<glyph unicode="&#x43d;" horiz-adv-x="1273" d="M0 0l207 1055h354l-74 -373h326l74 373h354l-207 -1055h-354l76 385h-326l-76 -385h-354z" />
<glyph unicode="&#x43e;" horiz-adv-x="1310" d="M37 449q0 135 56.5 254.5t148.5 200.5t210.5 128t241.5 47q240 0 393.5 -130t153.5 -343q0 -135 -56.5 -255t-149 -201t-210.5 -128t-241 -47q-241 0 -394 130t-153 344zM395 465q0 -90 54 -142.5t141 -52.5q113 0 203 88t90 226q0 92 -54 146t-139 54q-111 0 -203 -90.5 t-92 -228.5z" />
<glyph unicode="&#x43f;" horiz-adv-x="1261" d="M0 0l207 1055h1022l-207 -1055h-354l147 758h-313l-148 -758h-354z" />
<glyph unicode="&#x440;" horiz-adv-x="1296" d="M-78 -410l283 1465h319l-10 -54q-3 -16 -7.5 -32.5t-7.5 -25.5l-3 -9h4q56 68 140 106.5t177 38.5q190 0 299 -124t109 -334q0 -139 -49.5 -261.5t-131 -205.5t-185.5 -131t-212 -48q-174 0 -276 111h-4q-5 -37 -15 -90l-78 -406h-352zM438 455q0 -82 41 -134.5 t123 -52.5q100 0 182 90t82 236q0 86 -44 136t-120 50q-42 0 -87.5 -22.5t-85.5 -62t-65.5 -103t-25.5 -137.5z" />
<glyph unicode="&#x441;" horiz-adv-x="1134" d="M39 459q0 113 47.5 224t131 199t209.5 142.5t271 54.5q275 0 430 -155l-178 -222q-42 36 -109 59t-126 23q-95 0 -169.5 -48t-111.5 -116.5t-37 -140.5q0 -89 55 -149t162 -60q139 0 316 127l90 -268q-80 -66 -207 -110t-248 -44q-127 0 -228.5 38t-165.5 104t-98 153 t-34 189z" />
<glyph unicode="&#x442;" horiz-adv-x="1056" d="M59 758l60 297h995l-59 -297h-322l-147 -758h-355l148 758h-320z" />
<glyph unicode="&#x443;" horiz-adv-x="1157" d="M-166 -348l154 246q45 -33 104 -33q126 0 191 106l30 49l-247 1035h368l86 -523q4 -25 6.5 -64t3.5 -65v-26h5q36 92 63 149l236 529h397l-660 -1168q-92 -162 -215.5 -239.5t-244.5 -77.5q-150 0 -277 82z" />
<glyph unicode="&#x444;" horiz-adv-x="1619" d="M41 461q0 167 91.5 303.5t248.5 218.5t352 96l70 355h334l-70 -355q98 -3 185.5 -39.5t152.5 -99t103 -153t38 -195.5q0 -167 -91 -303.5t-248 -218t-353 -95.5l-76 -385h-334l76 385q-131 4 -239.5 64.5t-174 171t-65.5 250.5zM381 471q0 -93 52 -151t140 -66l107 547 q-124 -12 -211.5 -108.5t-87.5 -221.5zM907 254q124 12 208.5 107.5t84.5 220.5q0 96 -51 154.5t-135 64.5z" />
<glyph unicode="&#x445;" horiz-adv-x="1124" d="M-96 0l442 532l-250 523h373l86 -226l23 -77h4q27 50 45 77l159 226h410l-451 -543l244 -512h-364l-95 227l-18 62h-4q-23 -44 -37 -62l-164 -227h-403z" />
<glyph unicode="&#x446;" horiz-adv-x="1325" d="M2 0l205 1055h354l-147 -758h299l147 758h354l-147 -758h150l-105 -543h-315l47 246h-842z" />
<glyph unicode="&#x447;" horiz-adv-x="1175" d="M66 606q0 41 8 80l71 369h349l-52 -258q-12 -70 -12 -78q0 -47 30.5 -77t84.5 -30q85 0 166 52l77 391h355l-207 -1055h-354l67 340l13 47h-5q-46 -24 -119 -39.5t-137 -15.5q-154 0 -244.5 71t-90.5 203z" />
<glyph unicode="&#x448;" horiz-adv-x="1716" d="M0 0l207 1055h334l-148 -758h238l147 758h334l-147 -758h237l148 758h333l-206 -1055h-1477z" />
<glyph unicode="&#x449;" horiz-adv-x="1794" d="M2 0l205 1055h334l-148 -758h238l147 758h334l-147 -758h237l148 758h333l-147 -758h150l-105 -543h-315l47 246h-1311z" />
<glyph unicode="&#x44a;" horiz-adv-x="1263" d="M39 758l59 297h621l-66 -330h174q182 0 269.5 -83.5t87.5 -231.5q0 -189 -129 -299.5t-348 -110.5h-549l147 758h-266zM557 231h109q63 0 110 46t47 114q0 48 -28 76.5t-84 28.5h-103z" />
<glyph unicode="&#x44b;" horiz-adv-x="1646" d="M0 0l207 1055h354l-65 -330h163q182 0 269.5 -83.5t87.5 -231.5q0 -189 -129 -299.5t-348 -110.5h-539zM399 231h99q63 0 110 46t47 114q0 48 -28 76.5t-84 28.5h-92zM1053 0l207 1055h354l-207 -1055h-354z" />
<glyph unicode="&#x44c;" horiz-adv-x="1105" d="M0 0l207 1055h354l-65 -330h174q182 0 269 -83.5t87 -231.5q0 -189 -129 -299.5t-348 -110.5h-549zM399 231h109q63 0 110.5 46.5t47.5 113.5q0 48 -28.5 76.5t-84.5 28.5h-102z" />
<glyph unicode="&#x44d;" horiz-adv-x="1128" d="M-51 129l143 227q51 -49 131 -77.5t158 -28.5q98 0 178 44.5t127 119.5h-395l45 233h397q-29 158 -225 158q-166 0 -283 -105l-123 234q79 69 201.5 107t243.5 38q126 0 226 -38.5t162 -104.5t94 -150t32 -180q0 -126 -54 -242t-145 -201.5t-218.5 -136.5t-268.5 -51 q-114 0 -235.5 40.5t-190.5 113.5z" />
<glyph unicode="&#x44e;" horiz-adv-x="1820" d="M0 0l207 1055h354l-76 -381h129q47 120 142.5 212.5t219.5 142.5t257 50q142 0 258 -56t187 -168t71 -261q0 -171 -90 -314t-239.5 -224t-321.5 -81q-204 0 -349 112t-169 306h-148l-78 -393h-354zM934 473q0 -98 48.5 -150.5t127.5 -52.5q108 0 194.5 87t86.5 218 q0 99 -53 154t-134 55q-108 0 -189 -89t-81 -222z" />
<glyph unicode="&#x44f;" horiz-adv-x="1155" d="M-88 0l270 328q16 19 32 35t24 22l8 6v4q-62 39 -98.5 110t-36.5 159q0 164 124.5 277.5t305.5 113.5h581l-207 -1055h-354l64 322h-74l-248 -322h-391zM463 662q0 -52 33.5 -78.5t89.5 -26.5h84l55 279h-86q-76 0 -126 -47t-50 -127z" />
<glyph unicode="&#x450;" horiz-adv-x="1159" d="M39 436q0 181 79 328.5t218 231t311 83.5q218 0 334.5 -112t116.5 -301q0 -88 -39 -207h-666v-13q0 -79 55 -127.5t152 -48.5q144 0 313 107l91 -264q-68 -52 -190.5 -95t-235.5 -43q-131 0 -235.5 37t-169.5 101t-99.5 146.5t-34.5 176.5zM426 1464h338l104 -307h-262z M440 662h312q2 12 2 36q0 55 -30 88t-83 33q-73 0 -124 -42.5t-77 -114.5z" />
<glyph unicode="&#x451;" horiz-adv-x="1159" d="M39 436q0 181 79 328.5t218 231t311 83.5q218 0 334.5 -112t116.5 -301q0 -88 -39 -207h-666v-13q0 -79 55 -127.5t152 -48.5q144 0 313 107l91 -264q-68 -52 -190.5 -95t-235.5 -43q-131 0 -235.5 37t-169.5 101t-99.5 146.5t-34.5 176.5zM369 1178l57 286h258l-57 -286 h-258zM440 662h312q2 12 2 36q0 55 -30 88t-83 33q-73 0 -124 -42.5t-77 -114.5zM797 1178l57 286h258l-57 -286h-258z" />
<glyph unicode="&#x452;" horiz-adv-x="1284" d="M2 0l207 1069h-119l45 236h121l31 159h354l-31 -159h334l-45 -236h-336l-39 -205q-4 -24 -10 -45.5t-10 -30.5l-4 -10h4q44 70 141.5 117t198.5 47q148 0 237.5 -72t89.5 -227q0 -42 -14 -117l-96 -512q-20 -107 -68 -189t-105.5 -128.5t-128 -75.5t-127 -38t-112.5 -9 q-36 0 -69.5 1.5t-49.5 2.5l-16 2l59 297q33 -4 74 -4q161 0 197 186l80 410q6 37 6 61q0 47 -22.5 69t-69.5 22q-102 0 -183.5 -86t-103.5 -205l-66 -330h-354z" />
<glyph unicode="&#x453;" horiz-adv-x="897" d="M0 0l207 1055h743l-59 -297h-389l-148 -758h-354zM401 1157l228 307h362l-303 -307h-287z" />
<glyph unicode="&#x454;" horiz-adv-x="1142" d="M37 459q0 121 55.5 235.5t147.5 198.5t219 135t262 51q278 0 409 -145l-159 -229q-44 43 -120.5 68.5t-148.5 25.5q-92 0 -169 -40.5t-123 -111.5h397l-45 -233h-402q16 -86 84 -125t166 -39q160 0 320 131l100 -254q-73 -63 -216 -107.5t-267 -44.5t-222.5 37.5 t-160.5 104t-94.5 153.5t-32.5 189z" />
<glyph unicode="&#x455;" horiz-adv-x="958" d="M-35 119l168 237q47 -42 122 -68t148 -26q113 0 113 62q0 21 -23 38t-60 31t-81.5 30.5t-89 42t-81.5 59t-60 87t-23 121.5q0 154 128.5 250t318.5 96q215 0 387 -116l-139 -246q-42 33 -115 54.5t-143 21.5q-109 0 -109 -60q0 -20 23 -36t60 -30.5t82 -31t90 -42.5 t82 -61t60 -91t23 -126q0 -153 -118.5 -246.5t-309.5 -93.5q-120 0 -240.5 38.5t-212.5 105.5z" />
<glyph unicode="&#x456;" horiz-adv-x="591" d="M2 0l203 1055h354l-205 -1055h-352zM236 1188l53 276h346l-53 -276h-346z" />
<glyph unicode="&#x457;" horiz-adv-x="591" d="M2 0l203 1055h354l-205 -1055h-352zM66 1178l57 286h258l-57 -286h-258zM494 1178l57 286h258l-57 -286h-258z" />
<glyph unicode="&#x458;" horiz-adv-x="593" d="M-315 -420l57 295q12 -2 45 -2q32 0 61 5t63 17.5t58.5 41.5t32.5 71l203 1047h354l-209 -1078q-14 -74 -43.5 -135t-66 -102t-83 -72t-90.5 -48.5t-93.5 -28t-87 -14t-76.5 -3.5q-58 0 -125 6zM236 1188l53 276h346l-53 -276h-346z" />
<glyph unicode="&#x459;" horiz-adv-x="1689" d="M-74 -10l58 309q30 4 52 10t50.5 21t51.5 42.5t47 69t44.5 106t36.5 148.5l70 359h821l-72 -363h154q189 0 279 -80.5t90 -224.5q0 -124 -64.5 -213t-172.5 -131.5t-247 -42.5h-528l149 774h-133l-12 -63q-36 -186 -86.5 -316.5t-129 -225.5t-192 -139t-266.5 -40z M995 231h115q62 0 111 35t49 96q0 45 -30 71t-91 26h-109z" />
<glyph unicode="&#x45a;" horiz-adv-x="1783" d="M0 0l207 1055h354l-69 -359h337l70 359h354l-71 -363h153q189 0 279 -80.5t90 -224.5q0 -124 -64.5 -213t-172 -131.5t-246.5 -42.5h-529l84 424h-338l-84 -424h-354zM1092 231h114q62 0 111 35t49 96q0 45 -30 71t-91 26h-108z" />
<glyph unicode="&#x45b;" horiz-adv-x="1286" d="M2 0l207 1069h-121l47 236h121l31 159h354l-33 -159h336l-47 -236h-334l-39 -201l-20 -90h4q45 71 139.5 119.5t194.5 48.5q71 0 129 -16.5t104.5 -50.5t72.5 -93t26 -139q0 -36 -15 -117l-102 -530h-355l93 473q6 37 6 62q0 90 -94 90q-102 0 -183.5 -86t-103.5 -205 l-64 -334h-354z" />
<glyph unicode="&#x45c;" horiz-adv-x="1210" d="M0 0l207 1055h354l-74 -371h107l256 371h405l-407 -545v-4l244 -506h-383l-168 387h-111l-76 -387h-354zM557 1157l227 307h363l-303 -307h-287z" />
<glyph unicode="&#x45d;" horiz-adv-x="1267" d="M0 0l207 1055h328l-89 -445l-26 -108h4q29 47 82 108l381 445h348l-207 -1055h-328l86 440q4 24 11 52l11 44l5 15h-4q-33 -52 -82 -109l-379 -442h-348zM459 1464h338l104 -307h-262z" />
<glyph unicode="&#x45e;" horiz-adv-x="1157" d="M-166 -348l154 246q45 -33 104 -33q126 0 191 106l30 49l-247 1035h368l86 -523q4 -25 6.5 -64t3.5 -65v-26h5q36 92 63 149l236 529h397l-660 -1168q-92 -162 -215.5 -239.5t-244.5 -77.5q-150 0 -277 82zM340 1386q0 29 10 78h266q-6 -21 -6 -45q0 -43 27 -71.5 t78 -28.5q58 0 100 34.5t53 110.5h258q-13 -88 -54 -154.5t-101 -105.5t-128.5 -57.5t-146.5 -18.5q-161 0 -258.5 72t-97.5 186z" />
<glyph unicode="&#x45f;" horiz-adv-x="1247" d="M2 0l205 1055h354l-147 -758h299l147 758h354l-204 -1055h-346l-48 -246h-315l47 246h-346z" />
<glyph unicode="&#x462;" horiz-adv-x="1464" d="M102 1104l54 266h336l30 166h350l-30 -166h418l-54 -266h-418l-32 -174h229q191 0 304.5 -112t113.5 -286q0 -106 -44 -204t-118 -170t-178 -115t-217 -43h-629l213 1104h-328zM635 307h182q83 0 148 50.5t65 136.5q0 129 -158 129h-176z" />
<glyph unicode="&#x463;" horiz-adv-x="1220" d="M49 934l47 248h248l55 282h355l-56 -282h330l-47 -248h-328l-41 -209h174q187 0 276 -83.5t89 -231.5q0 -187 -134 -298.5t-351 -111.5h-549l182 934h-250zM516 231h119q67 0 114.5 46.5t47.5 117.5q0 44 -31 72.5t-86 28.5h-113z" />
<glyph unicode="&#x472;" d="M90 629q0 170 71.5 329.5t188.5 275.5t275 185.5t323 69.5q310 0 500 -179t190 -460q0 -173 -72.5 -335.5t-191 -280t-276 -188.5t-320.5 -71q-155 0 -284.5 49t-217.5 135.5t-137 207.5t-49 262zM451 598q15 -138 105.5 -221.5t225.5 -83.5q132 0 255.5 84.5 t187.5 220.5h-774zM496 868h780q-14 137 -105 220t-227 83q-138 0 -261.5 -84t-186.5 -219z" />
<glyph unicode="&#x473;" horiz-adv-x="1312" d="M39 459q0 130 56 246.5t149 197.5t215.5 128.5t253.5 47.5q109 0 205 -33t168.5 -93t114.5 -152.5t42 -204.5q0 -173 -95 -317t-249.5 -224t-329.5 -80q-146 0 -265.5 56t-192 167.5t-72.5 260.5zM358 436q9 -103 71 -155t157 -52q98 0 185.5 55.5t127.5 151.5h-541z M389 629h533q-13 96 -73.5 146t-150.5 50q-93 0 -179.5 -52.5t-129.5 -143.5z" />
<glyph unicode="&#x474;" horiz-adv-x="1423" d="M152 1464h372l97 -833q4 -41 6.5 -100t2.5 -97l1 -39h4q53 144 100 236l365 715q34 66 76 92t118 26h273l-60 -307h-51q-40 0 -64 -17.5t-49 -62.5l-585 -1077h-373z" />
<glyph unicode="&#x475;" horiz-adv-x="1224" d="M90 1055h356l54 -561q4 -30 5 -76t0 -76l-1 -31h4q41 113 74 183l178 362q51 110 114.5 154.5t169.5 44.5h236l-59 -297h-50q-53 0 -79.5 -19t-57.5 -77l-354 -662h-432z" />
<glyph unicode="&#x48a;" horiz-adv-x="1683" d="M37 0l285 1464h358l-133 -684q-8 -41 -24.5 -103.5t-28.5 -104.5l-13 -42h4q96 154 172 250l539 684h363l-226 -1157h281l-37 -186l-262 -408h-240l125 287h-285l134 682q7 41 23 103.5t28 104.5l12 42h-4q-94 -154 -170 -250l-541 -682h-360zM604 1788q0 29 10 78h267 q-7 -24 -7 -45q0 -43 27 -72t78 -29q58 0 100.5 35t53.5 111h258q-13 -88 -54 -154.5t-101 -105.5t-128.5 -57.5t-146.5 -18.5q-161 0 -259 72t-98 186z" />
<glyph unicode="&#x48b;" horiz-adv-x="1425" d="M0 0l207 1055h328l-89 -445l-26 -108h4q29 47 82 108l381 445h348l-150 -758h256l-32 -176l-234 -367h-227l104 246h-252l86 440q4 24 11 52l11 44l5 15h-4q-33 -52 -82 -109l-379 -442h-348zM383 1386q0 29 10 78h266q-6 -21 -6 -45q0 -43 27 -71.5t78 -28.5 q58 0 100 34.5t53 110.5h258q-13 -88 -54 -154.5t-101 -105.5t-128.5 -57.5t-146.5 -18.5q-161 0 -258.5 72t-97.5 186z" />
<glyph unicode="&#x48c;" horiz-adv-x="1464" d="M104 1120l52 266h336l28 150h350l-28 -150h418l-52 -266h-417l-37 -190h229q184 0 301 -120.5t117 -299.5q0 -138 -71.5 -255t-200 -186t-285.5 -69h-629l217 1120h-328zM633 307h182q84 0 151.5 51t67.5 136q0 61 -42 95t-122 34h-176z" />
<glyph unicode="&#x48d;" horiz-adv-x="1220" d="M49 934l47 248h248l55 282h355l-56 -282h330l-47 -248h-328l-41 -209h174q187 0 276 -83.5t89 -231.5q0 -187 -134 -298.5t-351 -111.5h-549l182 934h-250zM516 231h119q67 0 114.5 46.5t47.5 117.5q0 44 -31 72.5t-86 28.5h-113z" />
<glyph unicode="&#x48e;" horiz-adv-x="1323" d="M37 0l285 1464h559q132 0 223 -45q102 -49 157.5 -145.5t55.5 -224.5q0 -132 -51 -248.5t-140 -200.5l103 -123l-152 -131l-121 146q-91 -39 -200 -39h-273l-88 -453h-358zM539 719h215h14l-96 117l151 131l117 -142q49 84 49 191q0 66 -37.5 103.5t-109.5 37.5h-221z " />
<glyph unicode="&#x48f;" horiz-adv-x="1327" d="M-78 -410l283 1465h319l-10 -54l-18 -67h4q121 145 323 145q184 0 293 -125t109 -336q0 -274 -183 -464l119 -146l-157 -129l-123 154q-116 -58 -234 -58q-174 0 -276 111h-4q-5 -37 -15 -90l-78 -406h-352zM438 459q0 -94 44.5 -152.5t131.5 -58.5q42 0 82 12l-114 146 l157 129l115 -146q53 82 53 182q0 95 -47.5 152t-134.5 57q-114 0 -200.5 -92.5t-86.5 -228.5z" />
<glyph unicode="&#x490;" horiz-adv-x="1110" d="M37 0l285 1464h643l49 246h286l-108 -553h-571l-226 -1157h-358z" />
<glyph unicode="&#x491;" horiz-adv-x="929" d="M2 0l205 1055h508l47 245h268l-104 -542h-422l-148 -758h-354z" />
<glyph unicode="&#x492;" horiz-adv-x="1097" d="M43 575l47 246h115l125 643h897l-60 -307h-538l-66 -336h318l-47 -246h-320l-111 -575h-358l111 575h-113z" />
<glyph unicode="&#x493;" horiz-adv-x="923" d="M-35 362l41 216h123l94 477h744l-60 -297h-389l-35 -180h248l-41 -216h-250l-69 -362h-355l70 362h-121z" />
<glyph unicode="&#x494;" horiz-adv-x="1337" d="M37 0l285 1464h899l-60 -307h-540l-62 -315q101 32 225 32q222 0 337.5 -130.5t115.5 -366.5q0 -128 -33.5 -248t-99 -219.5t-155 -171.5t-208.5 -106.5t-252 -20.5l56 287q88 0 160.5 62.5t111.5 162t39 211.5q0 110 -46.5 167.5t-156.5 57.5q-64 0 -153 -27l-105 -532 h-358z" />
<glyph unicode="&#x495;" horiz-adv-x="1114" d="M2 0l205 1055h780l-53 -279h-426l-39 -196q82 32 178 32q164 0 259 -98.5t95 -275.5q0 -204 -119 -377.5t-327 -290.5l-156 246q114 61 189.5 168.5t75.5 212.5q0 64 -36 100.5t-106 36.5q-44 0 -104 -27l-62 -307h-354z" />
<glyph unicode="&#x496;" horiz-adv-x="2191" d="M-94 0l555 793v4l-271 667h365l223 -565h137l111 565h358l-110 -565h137l363 565h426l-506 -731v-4l141 -424h268l-116 -592h-318l57 287h-157l-185 594h-170l-114 -594h-359l115 594h-137l-393 -594h-420z" />
<glyph unicode="&#x497;" horiz-adv-x="1804" d="M-94 0l381 561v4l-162 490h344l119 -375h96l74 375h329l-73 -375h92l256 375h383l-387 -541v-2l82 -215h264l-105 -543h-313l47 246h-141l-127 383h-109l-75 -383h-330l76 383h-99l-241 -383h-381z" />
<glyph unicode="&#x498;" horiz-adv-x="1173" d="M-37 199l205 229q55 -65 133.5 -102t157.5 -37q96 0 165.5 50.5t69.5 139.5q0 111 -149 111h-211l55 287h178q79 0 141 51t62 129q0 121 -143 121q-138 0 -310 -121l-127 260q119 93 249.5 132.5t246.5 39.5q130 0 233 -39.5t166.5 -124t63.5 -203.5q0 -123 -70.5 -220.5 t-189.5 -145.5l-2 -4q78 -37 126 -113t48 -174q0 -175 -122.5 -300t-305.5 -169l-55 -283h-318l55 279q-108 22 -199.5 75.5t-152.5 131.5z" />
<glyph unicode="&#x499;" horiz-adv-x="970" d="M-53 125l153 221q51 -45 117.5 -74.5t130.5 -29.5q59 0 103.5 28.5t44.5 85.5q0 33 -22 49.5t-79 16.5h-129l47 233h107q52 0 93.5 26t41.5 75q0 65 -106 65q-112 0 -256 -80l-84 224q78 52 190 83t231 31q176 0 276.5 -76t100.5 -200q0 -89 -50 -154t-136 -104v-4 q127 -80 127 -219q0 -129 -91 -215t-233 -115l-45 -238h-307l45 240q-156 32 -270 131z" />
<glyph unicode="&#x49a;" horiz-adv-x="1482" d="M37 0l285 1464h358l-111 -565h138l419 565h416l-555 -719v-4l156 -436h237l-116 -592h-318l58 287h-132l-194 594h-168l-115 -594h-358z" />
<glyph unicode="&#x49b;" horiz-adv-x="1314" d="M0 0l207 1055h354l-74 -371h107l256 371h405l-407 -545v-4l100 -209h266l-104 -543h-313l47 246h-135l-168 387h-111l-76 -387h-354z" />
<glyph unicode="&#x49c;" horiz-adv-x="1646" d="M37 0l285 1464h358l-111 -565h105l43 217h246l-43 -217h61l373 565h418l-533 -751v-4l279 -709h-371l-225 594h-62l-43 -223h-246l43 223h-104l-115 -594h-358z" />
<glyph unicode="&#x49d;" horiz-adv-x="1415" d="M0 0l207 1055h354l-74 -371h64l37 190h205l-37 -190h37l262 371h405l-411 -531v-4l247 -520h-383l-168 387h-47l-36 -192h-205l37 192h-64l-76 -387h-354z" />
<glyph unicode="&#x49e;" horiz-adv-x="1411" d="M51 0l205 1055h-133l45 229h133l35 180h358l-35 -180h142l-45 -229h-142l-30 -156h137l420 565h415l-555 -719v-4l267 -741h-381l-195 594h-168l-114 -594h-359z" />
<glyph unicode="&#x49f;" horiz-adv-x="1220" d="M2 0l209 1079h-139l45 226h139l31 159h354l-31 -159h168l-45 -226h-168l-71 -372h96l278 348h412l-424 -500v-4l236 -551h-375l-154 410h-127l-80 -410h-354z" />
<glyph unicode="&#x4a0;" horiz-adv-x="1646" d="M135 1157l60 307h735l-111 -565h137l420 565h416l-555 -719v-4l266 -741h-381l-194 594h-168l-115 -594h-358l225 1157h-377z" />
<glyph unicode="&#x4a1;" horiz-adv-x="1368" d="M41 758l57 297h621l-74 -371h107l256 371h405l-407 -545v-4l243 -506h-383l-168 387h-110l-76 -387h-354l147 758h-264z" />
<glyph unicode="&#x4a2;" horiz-adv-x="1660" d="M37 0l285 1464h358l-115 -585h533l114 585h359l-225 -1159h233l-117 -592h-317l57 287h-274l110 573h-532l-111 -573h-358z" />
<glyph unicode="&#x4a3;" horiz-adv-x="1388" d="M0 0l207 1055h354l-74 -373h326l74 373h354l-149 -758h202l-104 -543h-313l47 246h-244l76 385h-326l-76 -385h-354z" />
<glyph unicode="&#x4a4;" horiz-adv-x="1968" d="M37 0l285 1464h358l-115 -585h533l114 585h897l-59 -307h-539l-225 -1157h-358l110 573h-532l-111 -573h-358z" />
<glyph unicode="&#x4a5;" horiz-adv-x="1560" d="M0 0l207 1055h354l-74 -373h326l74 373h727l-60 -297h-372l-148 -758h-354l76 385h-326l-76 -385h-354z" />
<glyph unicode="&#x4a6;" horiz-adv-x="2060" d="M37 0l285 1464h1093l-117 -602q104 33 226 33q222 0 335 -133.5t113 -374.5q0 -128 -33 -249t-98 -221.5t-154 -174t-208.5 -109t-253.5 -22.5l55 287q88 0 160.5 64t111.5 165.5t39 216.5q0 116 -44.5 176t-153.5 60q-65 0 -154 -27l-109 -553h-358l225 1161h-374 l-228 -1161h-358z" />
<glyph unicode="&#x4a7;" horiz-adv-x="1773" d="M2 0l205 1055h973l-78 -389q101 36 196 36q164 0 265.5 -124t101.5 -336q0 -109 -30 -208t-80.5 -174t-117 -135.5t-139 -98.5t-147.5 -56l-90 264q246 103 246 379q0 88 -41 143.5t-117 55.5q-40 0 -98 -25l-76 -387h-354l147 758h-264l-148 -758h-354z" />
<glyph unicode="&#x4a8;" horiz-adv-x="1955" d="M94 639q0 266 153.5 495.5t397.5 356.5l146 -324q-142 -81 -237 -218.5t-95 -297.5q0 -150 88.5 -249t267.5 -99q58 0 105 8q-146 183 -146 422q0 106 28.5 211t85.5 198.5t135 165.5t184 114t225 42q153 0 263.5 -68.5t163 -178.5t52.5 -246q0 -181 -93 -358.5 t-253 -321.5q27 -4 84 -4h133l-56 -287h-139q-181 0 -352 76q-223 -101 -440 -101q-147 0 -274.5 46t-222.5 129.5t-149.5 210t-54.5 278.5zM1137 727q0 -173 98 -285q139 95 224 230t85 282q0 185 -145 185q-57 0 -103.5 -28t-75 -71.5t-48 -99.5t-27.5 -109t-8 -104z" />
<glyph unicode="&#x4a9;" horiz-adv-x="1705" d="M43 479q0 192 120 356t316 244l119 -280q-95 -44 -163 -127.5t-68 -182.5q0 -46 15.5 -87.5t47 -76.5t85.5 -56t124 -21q48 0 92 8q-108 127 -108 297q0 105 42 201.5t115 168t177.5 114t222.5 42.5q194 0 306.5 -107t112.5 -267q0 -119 -64.5 -234t-176.5 -213h47h184 l-51 -258h-164q-184 0 -344 59q-208 -84 -397 -84q-90 0 -175.5 20t-160.5 61.5t-131.5 100.5t-89.5 142t-33 180zM950 563q0 -121 86 -198q107 62 171.5 143.5t64.5 177.5q0 129 -121 129q-67 0 -114 -39.5t-67 -95t-20 -117.5z" />
<glyph unicode="&#x4aa;" horiz-adv-x="1468" d="M92 625q0 173 68.5 333t184 276t275 185.5t332.5 69.5q162 0 314 -52t252 -159l-203 -246q-67 57 -161 93t-189 36q-94 0 -177 -31t-141 -82.5t-100.5 -118t-63 -138.5t-20.5 -142q0 -150 87.5 -248t252.5 -98q209 0 428 174l139 -284q-92 -82 -229 -140t-281 -73 l-53 -267h-318l58 293q-214 60 -334.5 224.5t-120.5 394.5z" />
<glyph unicode="&#x4ab;" horiz-adv-x="1138" d="M41 459q0 113 47.5 224t131 199t209.5 142.5t271 54.5q275 0 430 -155l-178 -222q-42 36 -109 59t-126 23q-95 0 -169.5 -48t-111.5 -116.5t-37 -140.5q0 -89 55 -149t162 -60q139 0 316 127l90 -268q-65 -54 -163 -94t-202 -53l-43 -228h-307l49 252q-153 51 -234 172 t-81 281z" />
<glyph unicode="&#x4ac;" horiz-adv-x="1302" d="M127 1157l59 307h1244l-60 -307h-442l-166 -852h235l-116 -592h-318l58 287h-277l225 1157h-442z" />
<glyph unicode="&#x4ad;" horiz-adv-x="1075" d="M59 758l60 297h995l-59 -297h-322l-90 -461h201l-105 -543h-313l47 246h-242l148 758h-320z" />
<glyph unicode="&#x4ae;" horiz-adv-x="1249" d="M135 1464h387l99 -352q12 -44 23.5 -97t17.5 -83l6 -31h4q63 109 129 211l223 352h430l-659 -878l-113 -586h-358l116 600z" />
<glyph unicode="&#x4af;" horiz-adv-x="1155" d="M86 1055h358l64 -520q3 -30 4 -75t0 -74v-30h4q39 109 74 179l262 520h389l-604 -1055l-80 -410h-352l80 410z" />
<glyph unicode="&#x4b0;" horiz-adv-x="1245" d="M127 1464h391l98 -352q12 -44 24 -97t18 -83l6 -31h4q61 111 129 211l231 352h424l-627 -831h219l-47 -246h-237l-76 -387h-358l75 387h-213l48 246h194z" />
<glyph unicode="&#x4b1;" horiz-adv-x="1157" d="M41 0l43 225h160l-156 830h361l63 -520q3 -30 4 -75t0 -74v-30h4q39 109 74 179l262 520h387l-475 -830h160l-43 -225h-246l-80 -410h-352l80 410h-246z" />
<glyph unicode="&#x4b2;" horiz-adv-x="1435" d="M-100 0l585 737l-305 727h391l107 -295q15 -41 29 -87.5t21 -72.5l7 -26h4q51 92 121 186l215 295h418l-596 -745l178 -414h262l-116 -592h-318l58 287h-138l-114 301q-16 41 -30.5 86t-20.5 69l-7 25h-4q-51 -88 -121 -180l-223 -301h-403z" />
<glyph unicode="&#x4b3;" horiz-adv-x="1208" d="M-96 0l442 532l-250 523h373l86 -226l23 -77h4q27 50 45 77l159 226h410l-451 -543l103 -215h252l-105 -543h-313l47 246h-104l-95 227l-18 62h-4q-23 -44 -37 -62l-164 -227h-403z" />
<glyph unicode="&#x4b4;" horiz-adv-x="1910" d="M133 1157l62 307h1116l-62 -307h-379l-163 -852h540l226 1159h358l-225 -1159h200l-116 -592h-318l58 287h-1141l223 1157h-379z" />
<glyph unicode="&#x4b5;" horiz-adv-x="1564" d="M66 758l57 297h823l-57 -297h-236l-90 -461h381l148 758h354l-148 -758h168l-104 -541h-315l47 244h-942l147 758h-233z" />
<glyph unicode="&#x4b6;" horiz-adv-x="1513" d="M131 868q0 58 16 140l89 456h366l-78 -403q-8 -36 -8 -74q0 -71 38.5 -107t123.5 -36q73 0 147.5 23.5t124.5 54.5l105 542h366l-225 -1159h236l-117 -592h-318l58 287h-285l100 520l19 66h-4q-180 -68 -332 -68q-201 0 -311.5 92.5t-110.5 257.5z" />
<glyph unicode="&#x4b7;" horiz-adv-x="1286" d="M66 606q0 41 8 80l71 369h349l-52 -258q-12 -70 -12 -78q0 -47 30.5 -77t84.5 -30q85 0 166 52l77 391h355l-150 -758h199l-105 -543h-313l47 246h-239l67 340l13 47h-5q-46 -24 -119 -39.5t-137 -15.5q-154 0 -244.5 71t-90.5 203z" />
<glyph unicode="&#x4b8;" horiz-adv-x="1490" d="M129 868q0 58 16 140l88 456h367l-78 -403q-8 -36 -8 -74q0 -112 109 -137l53 266h246l-50 -252q96 24 158 58l105 542h366l-284 -1464h-367l106 541l19 65h-4q-113 -40 -160 -51l-41 -215h-246l37 188q-206 4 -319 93.5t-113 246.5z" />
<glyph unicode="&#x4b9;" horiz-adv-x="1298" d="M72 637q0 47 12 106l61 312h349l-52 -250q-8 -50 -8 -68q0 -90 76 -112l45 229h205l-45 -231q53 11 119 41l77 391h355l-207 -1055h-354l67 340l12 47h-2q-57 -24 -120 -35l-35 -178h-205l31 158q-176 0 -278.5 75t-102.5 230z" />
<glyph unicode="&#x4ba;" horiz-adv-x="1343" d="M39 0l283 1464h358l-100 -524l-19 -70h4q159 64 324 64q184 0 275 -96t91 -260q0 -73 -14 -142l-86 -436h-367l78 403q8 54 8 76q0 66 -36 98.5t-121 32.5q-114 0 -211 -53l-109 -557h-358z" />
<glyph unicode="&#x4bb;" horiz-adv-x="1284" d="M2 0l285 1464h354l-90 -463l-21 -90h5q45 72 139 120t194 48q71 0 129 -16.5t104.5 -50.5t72.5 -93t26 -139q0 -41 -14 -116l-129 -664h-355l119 606q6 38 6 62q0 90 -94 90q-102 0 -183.5 -86t-103.5 -205l-90 -467h-354z" />
<glyph unicode="&#x4bc;" horiz-adv-x="1873" d="M117 985q0 141 94 342h328q-101 -186 -101 -293q0 -112 86 -125q44 120 118.5 224.5t173.5 184t226.5 125.5t266.5 46q258 0 398 -148t140 -391q0 -156 -59 -315h-944q0 -146 84.5 -239t240.5 -93q112 0 222.5 46.5t181.5 103.5l141 -283q-28 -23 -70.5 -48.5t-119 -62.5 t-181.5 -60.5t-215 -23.5q-153 0 -277 47t-207 131t-128 200.5t-45 254.5v29q-74 2 -136 22.5t-112 61t-78 108t-28 156.5zM897 907h598q6 35 6 64q0 93 -61.5 149t-171.5 56q-72 0 -138.5 -26t-112.5 -67t-77 -86.5t-43 -89.5z" />
<glyph unicode="&#x4bd;" horiz-adv-x="1470" d="M63 748q0 110 62 227h274q-67 -119 -67 -199q0 -79 57 -94q67 176 221 286.5t359 110.5q208 0 324 -112.5t116 -296.5q0 -92 -39 -211h-665v-13q0 -79 54.5 -127.5t151.5 -48.5q145 0 314 107l90 -264q-73 -54 -191 -96t-254 -42q-148 0 -264 54t-186 165t-70 265v4 q-139 7 -213 81t-74 204zM752 662h311q2 12 2 36q0 56 -30.5 88.5t-88.5 32.5q-65 0 -116 -42t-78 -115z" />
<glyph unicode="&#x4be;" horiz-adv-x="1878" d="M119 985q0 141 94 342h328q-101 -186 -101 -293q0 -112 86 -125q44 120 118.5 224.5t173.5 184t226.5 125.5t266.5 46q258 0 398 -148t140 -391q0 -156 -59 -315h-944q0 -146 84.5 -239t240.5 -93q112 0 222.5 46.5t181.5 103.5l141 -283q-27 -21 -65 -44.5t-106 -58 t-161.5 -59.5t-191.5 -31l-51 -264h-318l58 299q-194 63 -301 221t-107 375v29q-74 2 -136 22.5t-112 61t-78 108t-28 156.5zM899 907h598q6 35 6 64q0 93 -61.5 149t-171.5 56q-72 0 -138.5 -26t-112.5 -67t-77 -86.5t-43 -89.5z" />
<glyph unicode="&#x4bf;" horiz-adv-x="1474" d="M66 748q0 112 61 227h274q-67 -119 -67 -199q0 -79 57 -94q67 176 221 286.5t359 110.5q208 0 324 -112.5t116 -296.5q0 -92 -39 -211h-665v-13q0 -79 54.5 -127.5t151.5 -48.5q145 0 314 107l90 -264q-64 -47 -161 -85t-212 -48l-43 -226h-307l49 260 q-135 51 -213 165.5t-78 279.5v4q-139 7 -212.5 81t-73.5 204zM754 662h311q2 12 2 36q0 56 -30.5 88.5t-88.5 32.5q-65 0 -116 -42t-78 -115z" />
<glyph unicode="&#x4c0;" horiz-adv-x="669" d="M37 0l285 1464h358l-285 -1464h-358z" />
<glyph unicode="&#x4c1;" horiz-adv-x="2084" d="M-94 0l555 793v4l-271 667h365l223 -565h137l111 565h358l-110 -565h137l363 565h426l-506 -731v-4l243 -729h-368l-185 594h-170l-114 -594h-359l115 594h-137l-393 -594h-420zM877 1788q0 29 10 78h266q-6 -21 -6 -45q0 -43 26.5 -72t77.5 -29q58 0 100.5 35t53.5 111 h258q-13 -88 -54 -154.5t-101 -105.5t-128.5 -57.5t-146.5 -18.5q-161 0 -258.5 72t-97.5 186z" />
<glyph unicode="&#x4c2;" horiz-adv-x="1695" d="M-94 0l381 561v4l-162 490h344l119 -375h96l74 375h329l-73 -375h92l256 375h383l-387 -541v-2l196 -512h-362l-127 383h-109l-75 -383h-330l76 383h-99l-241 -383h-381zM600 1386q0 29 10 78h267q-7 -24 -7 -45q0 -43 27 -71.5t78 -28.5q58 0 100 34.5t53 110.5h258 q-13 -88 -54 -154.5t-101 -105.5t-128.5 -57.5t-146.5 -18.5q-161 0 -258.5 72t-97.5 186z" />
<glyph unicode="&#x4c3;" horiz-adv-x="1423" d="M37 0l285 1464h358l-109 -565q107 0 146 -2l393 567h414l-475 -655q119 -73 173 -194.5t54 -264.5q0 -103 -25 -208.5t-80.5 -207t-134 -177.5t-196.5 -117t-258 -29l57 297q61 0 108.5 33t74.5 82t45 112t24 115t6 100q0 124 -56.5 188t-201.5 64h-125l-119 -602h-358z " />
<glyph unicode="&#x4c4;" horiz-adv-x="1220" d="M2 0l205 1055h354l-72 -371q61 0 107 -4l254 375h412l-367 -482q85 -65 128.5 -160t43.5 -206q0 -200 -129 -370.5t-326 -266.5l-141 242q114 55 188 161t74 220q0 87 -50 140.5t-161 53.5h-90l-76 -387h-354z" />
<glyph unicode="&#x4c5;" horiz-adv-x="1599" d="M-90 -16l63 325q56 7 102 29t93.5 70t86 121.5t75 188t65.5 265.5l94 481h984l-226 -1157h283l-37 -186l-262 -408h-240l125 287h-287l226 1157h-285l-35 -178q-70 -358 -183 -578.5t-269 -318.5t-373 -98z" />
<glyph unicode="&#x4c6;" horiz-adv-x="1363" d="M-78 -10l60 309q33 4 59 14t59.5 37.5t60 70.5t53 119t46.5 177l66 338h864l-148 -758h236l-33 -176l-233 -367h-228l105 246h-258l149 774h-176l-10 -59q-26 -135 -61.5 -241t-91 -199t-126.5 -154t-170.5 -96t-222.5 -35z" />
<glyph unicode="&#x4c7;" horiz-adv-x="1560" d="M37 0l285 1464h358l-115 -585h533l114 585h359l-246 -1280q-28 -147 -75 -254.5t-106 -173t-137 -101.5t-160.5 -45.5t-184.5 -0.5l61 311q52 -2 85 6.5t64 36.5t52.5 84.5t40.5 149.5l73 376h-532l-111 -573h-358z" />
<glyph unicode="&#x4c8;" horiz-adv-x="1273" d="M2 0l205 1055h354l-72 -373h326l72 373h354l-184 -946q-37 -196 -141.5 -318t-301.5 -221l-153 248q100 56 133 84q76 65 107 196q4 18 8 39l47 248h-326l-74 -385h-354z" />
<glyph unicode="&#x4c9;" horiz-adv-x="1695" d="M37 0l285 1464h358l-115 -585h533l114 585h359l-225 -1157h280l-37 -186l-262 -408h-240l125 287h-284l110 573h-532l-111 -573h-358z" />
<glyph unicode="&#x4ca;" horiz-adv-x="1435" d="M0 0l207 1055h354l-74 -373h326l74 373h354l-149 -758h260l-33 -176l-234 -367h-227l105 246h-283l76 385h-326l-76 -385h-354z" />
<glyph unicode="&#x4cb;" horiz-adv-x="1411" d="M131 868q0 58 16 140l89 456h366l-78 -403q-8 -36 -8 -74q0 -71 38.5 -107t123.5 -36q73 0 147.5 23.5t124.5 54.5l105 542h366l-284 -1464h-283l-57 -287h-318l117 592h231l43 215l19 66h-4q-180 -68 -332 -68q-201 0 -311.5 92.5t-110.5 257.5z" />
<glyph unicode="&#x4cc;" horiz-adv-x="1169" d="M68 647q0 41 8 80l63 328h348l-43 -217q-12 -70 -12 -78q0 -47 30.5 -77t84.5 -30q85 0 166 52l69 350h355l-205 -1055h-242l-47 -246h-313l90 461h198l33 166l13 47h-2q-46 -24 -120 -39.5t-139 -15.5q-154 0 -244.5 71t-90.5 203z" />
<glyph unicode="&#x4cd;" horiz-adv-x="1941" d="M-14 0l391 1464h391l96 -618q6 -42 12.5 -102.5t9.5 -99.5l3 -40h4q72 146 123 242l334 618h393l-131 -1157h272l-37 -186l-262 -408h-239l124 287h-245l84 659q6 49 18 110.5t21 98.5l8 37h-4q-78 -156 -129 -246l-238 -423h-311l-74 423q-7 41 -15 103.5t-12 104.5 l-4 42h-4q-18 -139 -47 -250l-172 -659h-360z" />
<glyph unicode="&#x4ce;" horiz-adv-x="1720" d="M-45 0l305 1055h402l73 -463l13 -127h4q32 74 61 127l254 463h408l-78 -758h248l-33 -176l-234 -367h-227l104 246h-223l72 485l33 181h-4q-45 -90 -84 -156l-211 -369h-287l-68 369l-26 160h-4q-19 -103 -37 -185l-121 -485h-340z" />
<glyph unicode="&#x4cf;" horiz-adv-x="600" d="M2 0l285 1464h358l-285 -1464h-358z" />
<glyph unicode="&#x4d0;" horiz-adv-x="1368" d="M-117 0l762 1464h412l203 -1464h-359l-31 307h-456l-148 -307h-383zM526 1788q0 24 11 78h266q-6 -21 -6 -45q0 -43 26.5 -72t77.5 -29q58 0 100.5 35t53.5 111h258q-13 -88 -54 -154.5t-101 -105.5t-128.5 -57.5t-146.5 -18.5q-161 0 -259 72t-98 186zM553 594h289 l-29 285q-4 41 -7 103.5t-4 105.5l-1 42h-4q-60 -159 -105 -251z" />
<glyph unicode="&#x4d1;" horiz-adv-x="1120" d="M-16 254q0 89 44 160.5t113 116t160 74t178 41t174 11.5h17q6 27 6 43q0 45 -35 69t-100 24q-49 0 -107.5 -16t-98 -33.5t-99.5 -47.5l-76 267q69 39 199 77.5t251 38.5q58 0 112.5 -9t111 -33t99 -60.5t69 -96.5t26.5 -137q0 -40 -10 -102l-123 -641h-324l13 63 q3 16 7.5 32.5t7.5 24.5l3 9h-4q-19 -25 -46.5 -49t-66.5 -49t-91 -40.5t-107 -15.5q-125 0 -214 75.5t-89 203.5zM330 313q0 -73 88 -73q67 0 132 58t77 124l6 33h-37q-37 0 -75 -5t-85 -18.5t-76.5 -44t-29.5 -74.5zM340 1386q0 29 10 78h266q-6 -21 -6 -45 q0 -43 27 -71.5t78 -28.5q58 0 100 34.5t53 110.5h258q-13 -88 -54 -154.5t-101 -105.5t-128.5 -57.5t-146.5 -18.5q-161 0 -258.5 72t-97.5 186z" />
<glyph unicode="&#x4d2;" horiz-adv-x="1368" d="M-117 0l762 1464h412l203 -1464h-359l-31 307h-456l-148 -307h-383zM532 1579l58 287h258l-57 -287h-259zM553 594h289l-29 285q-4 41 -7 103.5t-4 105.5l-1 42h-4q-60 -159 -105 -251zM961 1579l57 287h258l-57 -287h-258z" />
<glyph unicode="&#x4d3;" horiz-adv-x="1120" d="M-16 254q0 89 44 160.5t113 116t160 74t178 41t174 11.5h17q6 27 6 43q0 45 -35 69t-100 24q-49 0 -107.5 -16t-98 -33.5t-99.5 -47.5l-76 267q69 39 199 77.5t251 38.5q58 0 112.5 -9t111 -33t99 -60.5t69 -96.5t26.5 -137q0 -40 -10 -102l-123 -641h-324l13 63 q3 16 7.5 32.5t7.5 24.5l3 9h-4q-19 -25 -46.5 -49t-66.5 -49t-91 -40.5t-107 -15.5q-125 0 -214 75.5t-89 203.5zM317 1178l58 286h258l-58 -286h-258zM330 313q0 -73 88 -73q67 0 132 58t77 124l6 33h-37q-37 0 -75 -5t-85 -18.5t-76.5 -44t-29.5 -74.5zM745 1178l58 286 h258l-57 -286h-259z" />
<glyph unicode="&#x4d4;" horiz-adv-x="1972" d="M-135 0l885 1464h1282l-60 -307h-559l-51 -266h446l-61 -307h-447l-53 -277h586l-59 -307h-945l115 590h-340l-342 -590h-397zM770 877h229l54 280h-119z" />
<glyph unicode="&#x4d5;" horiz-adv-x="1744" d="M-18 248q0 66 23.5 123t63.5 98.5t95 75t115.5 55t127.5 36t129 20.5t123 6h15q4 20 4 36q0 48 -36.5 71.5t-96.5 23.5q-65 0 -148.5 -28.5t-156.5 -68.5l-76 267q227 116 450 116q179 0 299 -108h5q146 108 313 108q218 0 334 -112t116 -301q0 -100 -39 -207h-665 q0 -26 8 -62q18 -65 72 -96t127 -31t158.5 31t154.5 76l90 -264q-67 -51 -189 -94.5t-237 -43.5q-292 0 -438 187h-4q-10 -17 -24 -34.5t-48 -47t-74 -51t-104 -38t-137 -16.5q-145 0 -247.5 73t-102.5 200zM338 313q0 -31 21.5 -49t64.5 -18q67 0 132 59.5t77 126.5l4 27 h-33q-36 0 -75 -5.5t-85.5 -20t-76 -45.5t-29.5 -75zM1024 662h311q2 24 2 36q0 51 -29.5 83t-82.5 32q-72 0 -123 -41.5t-78 -109.5z" />
<glyph unicode="&#x4d6;" horiz-adv-x="1181" d="M37 0l287 1464h915l-59 -307h-559l-52 -266h445l-62 -307h-444l-53 -277h587l-59 -307h-946zM463 1788q0 29 10 78h266q-6 -21 -6 -45q0 -43 27 -72t78 -29q58 0 100 35t53 111h258q-13 -88 -54 -154.5t-101 -105.5t-128.5 -57.5t-146.5 -18.5q-161 0 -258.5 72 t-97.5 186z" />
<glyph unicode="&#x4d7;" horiz-adv-x="1159" d="M39 436q0 181 79 328.5t218 231t311 83.5q218 0 334.5 -112t116.5 -301q0 -88 -39 -207h-666v-13q0 -79 55 -127.5t152 -48.5q144 0 313 107l91 -264q-68 -52 -190.5 -95t-235.5 -43q-131 0 -235.5 37t-169.5 101t-99.5 146.5t-34.5 176.5zM365 1386q0 29 10 78h266 q-6 -21 -6 -45q0 -43 26.5 -71.5t77.5 -28.5q58 0 100.5 34.5t53.5 110.5h258q-13 -88 -54 -154.5t-101 -105.5t-128.5 -57.5t-146.5 -18.5q-161 0 -258.5 72t-97.5 186zM440 662h312q2 12 2 36q0 55 -30 88t-83 33q-73 0 -124 -42.5t-77 -114.5z" />
<glyph unicode="&#x4d8;" horiz-adv-x="1501" d="M76 541q0 149 63 309h944v4q0 141 -80.5 224t-230.5 83q-117 0 -232.5 -46.5t-189.5 -102.5l-141 278q24 20 72 48t127 64.5t187.5 61.5t217.5 25q156 0 280 -52t201.5 -142t118.5 -206t41 -249q0 -126 -35.5 -251t-106 -235t-166 -195t-224 -134.5t-271.5 -49.5 q-264 0 -419.5 158t-155.5 408zM424 504q0 -100 61 -157.5t179 -57.5q142 0 239 80.5t127 208.5h-598q-8 -36 -8 -74z" />
<glyph unicode="&#x4d9;" horiz-adv-x="1171" d="M39 381q0 118 43 233h661q2 9 2 25q0 79 -59 120.5t-156 41.5q-75 0 -155.5 -23.5t-124.5 -47.5l-43 -23l-92 256q8 5 22.5 12.5t61.5 27.5t97 35.5t124 28t147 12.5q246 0 388.5 -129t142.5 -352q0 -124 -45.5 -237.5t-125.5 -198.5t-197 -136t-251 -51 q-206 0 -323 112.5t-117 293.5zM362 371q0 -59 36 -94t98 -35q75 0 139 51.5t88 126.5h-354q-7 -35 -7 -49z" />
<glyph unicode="&#x4da;" horiz-adv-x="1501" d="M76 520q0 150 63 330h944q0 50 -12 94q-26 99 -103.5 158t-195.5 59q-117 0 -232.5 -46.5t-189.5 -102.5l-137 280q24 20 75 49t130 64.5t187 59.5t214 24q156 0 279.5 -53.5t200 -145.5t116 -208t39.5 -248q0 -129 -37 -255t-108.5 -234.5t-168 -191.5t-224 -130.5 t-267.5 -47.5q-134 0 -243.5 43t-181 117.5t-110 173t-38.5 211.5zM424 504q0 -100 61 -157.5t179 -57.5q142 0 239 80.5t127 208.5h-598q-8 -36 -8 -74zM561 1579l57 287h259l-58 -287h-258zM989 1579l58 287h258l-58 -287h-258z" />
<glyph unicode="&#x4db;" horiz-adv-x="1171" d="M39 381q0 118 43 233h661q2 9 2 25q0 79 -59 120.5t-156 41.5q-75 0 -155.5 -23.5t-124.5 -47.5l-43 -23l-92 256q8 5 22.5 12.5t61.5 27.5t97 35.5t124 28t147 12.5q246 0 388.5 -129t142.5 -352q0 -124 -45.5 -237.5t-125.5 -198.5t-197 -136t-251 -51 q-206 0 -323 112.5t-117 293.5zM313 1178l58 286h258l-58 -286h-258zM362 371q0 -59 36 -94t98 -35q75 0 139 51.5t88 126.5h-354q-7 -35 -7 -49zM741 1178l58 286h258l-58 -286h-258z" />
<glyph unicode="&#x4dc;" horiz-adv-x="2084" d="M-94 0l555 793v4l-271 667h365l223 -565h137l111 565h358l-110 -565h137l363 565h426l-506 -731v-4l243 -729h-368l-185 594h-170l-114 -594h-359l115 594h-137l-393 -594h-420zM881 1579l57 287h258l-57 -287h-258zM1309 1579l57 287h258l-57 -287h-258z" />
<glyph unicode="&#x4dd;" horiz-adv-x="1695" d="M-94 0l381 561v4l-162 490h344l119 -375h96l74 375h329l-73 -375h92l256 375h383l-387 -541v-2l196 -512h-362l-127 383h-109l-75 -383h-330l76 383h-99l-241 -383h-381zM604 1178l58 286h258l-58 -286h-258zM1032 1178l58 286h258l-58 -286h-258z" />
<glyph unicode="&#x4de;" horiz-adv-x="1171" d="M-37 199l205 229q55 -65 133.5 -102t157.5 -37q96 0 165.5 50.5t69.5 139.5q0 111 -149 111h-211l55 287h178q79 0 141 51t62 129q0 121 -143 121q-138 0 -310 -121l-127 260q119 93 249.5 132.5t246.5 39.5q130 0 233 -39.5t166.5 -124t63.5 -203.5q0 -123 -70.5 -220.5 t-189.5 -145.5l-2 -4q78 -37 126 -113t48 -174q0 -88 -34 -167t-92.5 -137t-135 -100.5t-163 -64t-175.5 -21.5q-149 0 -282.5 60t-215.5 164zM410 1579l57 287h258l-57 -287h-258zM838 1579l57 287h258l-57 -287h-258z" />
<glyph unicode="&#x4df;" horiz-adv-x="968" d="M-53 125l153 221q51 -45 117.5 -74.5t130.5 -29.5q59 0 103.5 28.5t44.5 85.5q0 33 -22 49.5t-79 16.5h-129l47 233h107q52 0 93.5 26t41.5 75q0 65 -106 65q-112 0 -256 -80l-84 224q78 52 190 83t231 31q176 0 276.5 -76t100.5 -200q0 -89 -50 -154t-136 -104v-4 q127 -80 127 -219q0 -110 -69 -190.5t-174.5 -118.5t-229.5 -38q-115 0 -229.5 39t-198.5 111zM219 1178l57 286h259l-58 -286h-258zM647 1178l58 286h258l-58 -286h-258z" />
<glyph unicode="&#x4e0;" horiz-adv-x="1114" d="M-35 96l129 254q46 -33 132 -58.5t163 -25.5q110 0 192.5 55.5t82.5 143.5q0 63 -54 88t-178 25h-229l43 225l323 301q19 17 43.5 34t39.5 25l14 8v5q-51 -9 -117 -9h-356l57 297h893l-56 -280l-329 -283q-14 -12 -35 -26.5t-35 -23.5l-14 -9v-4q87 -4 153.5 -35 t105 -80.5t58 -108.5t19.5 -127q0 -115 -52 -211.5t-139 -160.5t-199.5 -99.5t-234.5 -35.5q-108 0 -219.5 30t-200.5 86z" />
<glyph unicode="&#x4e1;" horiz-adv-x="1032" d="M-162 -313l129 254q46 -33 132 -58.5t163 -25.5q111 0 193 55.5t82 142.5q0 63 -54 88t-178 25h-229l43 225l323 301q19 17 43.5 34t38.5 26l15 8v4q-51 -8 -117 -8h-356l57 297h893l-55 -281l-330 -282q-14 -12 -35 -27t-35 -24l-14 -9v-4q87 -4 153.5 -34.5t105 -80 t58 -108.5t19.5 -127q0 -152 -89.5 -270t-230.5 -178t-305 -60q-108 0 -219.5 30.5t-200.5 86.5z" />
<glyph unicode="&#x4e2;" horiz-adv-x="1548" d="M37 0l285 1464h358l-133 -684q-8 -41 -24.5 -103.5t-28.5 -104.5l-13 -42h4q96 154 172 250l539 684h363l-285 -1464h-359l134 682q7 41 23 103.5t28 104.5l12 42h-4q-94 -154 -170 -250l-541 -682h-360zM721 1604l45 229h563l-45 -229h-563z" />
<glyph unicode="&#x4e3;" horiz-adv-x="1267" d="M0 0l207 1055h328l-89 -445l-26 -108h4q29 47 82 108l381 445h348l-207 -1055h-328l86 440q4 24 11 52l11 44l5 15h-4q-33 -52 -82 -109l-379 -442h-348zM479 1200l45 230h563l-45 -230h-563z" />
<glyph unicode="&#x4e4;" horiz-adv-x="1548" d="M37 0l285 1464h358l-133 -684q-8 -41 -24.5 -103.5t-28.5 -104.5l-13 -42h4q96 154 172 250l539 684h363l-285 -1464h-359l134 682q7 41 23 103.5t28 104.5l12 42h-4q-94 -154 -170 -250l-541 -682h-360zM621 1579l57 287h258l-57 -287h-258zM1049 1579l57 287h258 l-57 -287h-258z" />
<glyph unicode="&#x4e5;" horiz-adv-x="1267" d="M0 0l207 1055h328l-89 -445l-26 -108h4q29 47 82 108l381 445h348l-207 -1055h-328l86 440q4 24 11 52l11 44l5 15h-4q-33 -52 -82 -109l-379 -442h-348zM403 1178l58 286h258l-57 -286h-259zM831 1178l58 286h258l-57 -286h-259z" />
<glyph unicode="&#x4e6;" d="M90 629q0 170 71.5 329.5t188.5 275.5t275 185.5t323 69.5q310 0 500 -179t190 -460q0 -173 -72.5 -335.5t-191 -280t-276 -188.5t-320.5 -71q-155 0 -284.5 49t-217.5 135.5t-137 207.5t-49 262zM459 649q0 -155 90 -250.5t233 -95.5q89 0 177 41t156 110t110.5 167.5 t42.5 205.5q0 150 -90.5 242t-233.5 92q-91 0 -179.5 -40t-155.5 -107.5t-108.5 -163.5t-41.5 -201zM682 1579l57 287h258l-57 -287h-258zM1110 1579l57 287h258l-57 -287h-258z" />
<glyph unicode="&#x4e7;" horiz-adv-x="1310" d="M37 449q0 135 56.5 254.5t148.5 200.5t210.5 128t241.5 47q240 0 393.5 -130t153.5 -343q0 -135 -56.5 -255t-149 -201t-210.5 -128t-241 -47q-241 0 -394 130t-153 344zM395 465q0 -90 54 -142.5t141 -52.5q113 0 203 88t90 226q0 92 -54 146t-139 54q-111 0 -203 -90.5 t-92 -228.5zM418 1178l57 286h258l-57 -286h-258zM846 1178l57 286h258l-57 -286h-258z" />
<glyph unicode="&#x4e8;" d="M90 629q0 170 71.5 329.5t188.5 275.5t275 185.5t323 69.5q310 0 500 -179t190 -460q0 -173 -72.5 -335.5t-191 -280t-276 -188.5t-320.5 -71q-155 0 -284.5 49t-217.5 135.5t-137 207.5t-49 262zM451 598q15 -138 105.5 -221.5t225.5 -83.5q132 0 255.5 84.5 t187.5 220.5h-774zM496 868h780q-14 137 -105 220t-227 83q-138 0 -261.5 -84t-186.5 -219z" />
<glyph unicode="&#x4e9;" horiz-adv-x="1312" d="M39 459q0 130 56 246.5t149 197.5t215.5 128.5t253.5 47.5q109 0 205 -33t168.5 -93t114.5 -152.5t42 -204.5q0 -173 -95 -317t-249.5 -224t-329.5 -80q-146 0 -265.5 56t-192 167.5t-72.5 260.5zM358 436q9 -103 71 -155t157 -52q98 0 185.5 55.5t127.5 151.5h-541z M389 629h533q-13 96 -73.5 146t-150.5 50q-93 0 -179.5 -52.5t-129.5 -143.5z" />
<glyph unicode="&#x4ea;" d="M90 629q0 170 71.5 329.5t188.5 275.5t275 185.5t323 69.5q310 0 500 -179t190 -460q0 -173 -72.5 -335.5t-191 -280t-276 -188.5t-320.5 -71q-155 0 -284.5 49t-217.5 135.5t-137 207.5t-49 262zM451 598q15 -138 105.5 -221.5t225.5 -83.5q132 0 255.5 84.5 t187.5 220.5h-774zM496 868h780q-14 137 -105 220t-227 83q-138 0 -261.5 -84t-186.5 -219zM682 1579l57 287h258l-57 -287h-258zM1110 1579l57 287h258l-57 -287h-258z" />
<glyph unicode="&#x4eb;" horiz-adv-x="1312" d="M39 459q0 130 56 246.5t149 197.5t215.5 128.5t253.5 47.5q109 0 205 -33t168.5 -93t114.5 -152.5t42 -204.5q0 -173 -95 -317t-249.5 -224t-329.5 -80q-146 0 -265.5 56t-192 167.5t-72.5 260.5zM358 436q9 -103 71 -155t157 -52q98 0 185.5 55.5t127.5 151.5h-541z M389 629h533q-13 96 -73.5 146t-150.5 50q-93 0 -179.5 -52.5t-129.5 -143.5zM428 1178l57 286h258l-57 -286h-258zM856 1178l57 286h258l-57 -286h-258z" />
<glyph unicode="&#x4ec;" horiz-adv-x="1472" d="M-27 201l197 245q68 -70 168 -108.5t207 -38.5q161 0 281.5 79.5t183.5 211.5h-609l56 287h606q-10 148 -98 218t-230 70q-109 0 -207.5 -38.5t-203.5 -120.5l-152 266q134 106 267 161.5t313 55.5q165 0 296.5 -49.5t215 -136t127 -200.5t43.5 -247q0 -171 -70 -332 t-188.5 -282t-285 -194t-349.5 -73q-159 0 -309 57t-259 169zM506 1579l57 287h258l-57 -287h-258zM934 1579l57 287h258l-57 -287h-258z" />
<glyph unicode="&#x4ed;" horiz-adv-x="1128" d="M-51 129l143 227q51 -49 131 -77.5t158 -28.5q98 0 178 44.5t127 119.5h-395l45 233h397q-29 158 -225 158q-166 0 -283 -105l-123 234q79 69 201.5 107t243.5 38q126 0 226 -38.5t162 -104.5t94 -150t32 -180q0 -126 -54 -242t-145 -201.5t-218.5 -136.5t-268.5 -51 q-114 0 -235.5 40.5t-190.5 113.5zM289 1178l57 286h258l-57 -286h-258zM717 1178l57 286h258l-57 -286h-258z" />
<glyph unicode="&#x4ee;" horiz-adv-x="1290" d="M8 86l174 256q65 -61 170 -61q84 0 135 81l-350 1102h369l145 -526q13 -46 24 -96t16 -76l5 -27h4q38 95 93 197l276 528h399l-637 -1097q-37 -66 -68.5 -113.5t-79 -103.5t-95 -91.5t-112.5 -59.5t-136 -24q-190 0 -332 111zM555 1602l45 229h563l-45 -229h-563z" />
<glyph unicode="&#x4ef;" horiz-adv-x="1157" d="M-166 -348l154 246q45 -33 104 -33q126 0 191 106l30 49l-247 1035h368l86 -523q4 -25 6.5 -64t3.5 -65v-26h5q36 92 63 149l236 529h397l-660 -1168q-92 -162 -215.5 -239.5t-244.5 -77.5q-150 0 -277 82zM414 1200l45 230h563l-45 -230h-563z" />
<glyph unicode="&#x4f0;" horiz-adv-x="1290" d="M8 86l174 256q65 -61 170 -61q84 0 135 81l-350 1102h369l145 -526q13 -46 24 -96t16 -76l5 -27h4q38 95 93 197l276 528h399l-637 -1097q-37 -66 -68.5 -113.5t-79 -103.5t-95 -91.5t-112.5 -59.5t-136 -24q-190 0 -332 111zM502 1579l57 287h258l-57 -287h-258z M930 1579l57 287h258l-57 -287h-258z" />
<glyph unicode="&#x4f1;" horiz-adv-x="1157" d="M-166 -348l154 246q45 -33 104 -33q126 0 191 106l30 49l-247 1035h368l86 -523q4 -25 6.5 -64t3.5 -65v-26h5q36 92 63 149l236 529h397l-660 -1168q-92 -162 -215.5 -239.5t-244.5 -77.5q-150 0 -277 82zM338 1178l57 286h258l-57 -286h-258zM766 1178l57 286h258 l-57 -286h-258z" />
<glyph unicode="&#x4f2;" horiz-adv-x="1290" d="M8 86l174 256q65 -61 170 -61q84 0 135 81l-350 1102h369l145 -526q13 -46 24 -96t16 -76l5 -27h4q38 95 93 197l276 528h399l-637 -1097q-37 -66 -68.5 -113.5t-79 -103.5t-95 -91.5t-112.5 -59.5t-136 -24q-190 0 -332 111zM473 1559l217 307h297l-223 -307h-291z M899 1559l227 307h347l-304 -307h-270z" />
<glyph unicode="&#x4f3;" horiz-adv-x="1157" d="M-166 -348l154 246q45 -33 104 -33q126 0 191 106l30 49l-247 1035h368l86 -523q4 -25 6.5 -64t3.5 -65v-26h5q36 92 63 149l236 529h397l-660 -1168q-92 -162 -215.5 -239.5t-244.5 -77.5q-150 0 -277 82zM305 1157l217 307h297l-223 -307h-291zM731 1157l227 307h347 l-304 -307h-270z" />
<glyph unicode="&#x4f4;" horiz-adv-x="1411" d="M131 868q0 58 16 140l89 456h366l-78 -403q-8 -36 -8 -74q0 -71 38.5 -107t123.5 -36q73 0 147.5 23.5t124.5 54.5l105 542h366l-284 -1464h-367l100 520l19 66h-4q-180 -68 -332 -68q-201 0 -311.5 92.5t-110.5 257.5zM524 1579l58 287h258l-58 -287h-258zM952 1579 l58 287h258l-58 -287h-258z" />
<glyph unicode="&#x4f5;" horiz-adv-x="1175" d="M66 606q0 41 8 80l71 369h349l-52 -258q-12 -70 -12 -78q0 -47 30.5 -77t84.5 -30q85 0 166 52l77 391h355l-207 -1055h-354l67 340l13 47h-5q-46 -24 -119 -39.5t-137 -15.5q-154 0 -244.5 71t-90.5 203zM326 1178l57 286h258l-57 -286h-258zM754 1178l57 286h258 l-57 -286h-258z" />
<glyph unicode="&#x4f6;" horiz-adv-x="1087" d="M37 0l285 1464h897l-60 -307h-538l-166 -852h235l-117 -592h-317l57 287h-276z" />
<glyph unicode="&#x4f7;" horiz-adv-x="907" d="M0 0l207 1055h743l-59 -297h-389l-90 -461h202l-104 -543h-313l47 246h-244z" />
<glyph unicode="&#x4f8;" horiz-adv-x="1898" d="M37 0l285 1464h358l-88 -452h219q185 0 293 -118t108 -312q0 -109 -42.5 -213.5t-116.5 -186.5t-183.5 -132t-234.5 -50h-598zM455 307h161q100 0 165 74t65 178q0 66 -41 106t-117 40h-156zM795 1579l57 287h258l-57 -287h-258zM1223 1579l57 287h258l-57 -287h-258z M1266 0l284 1464h359l-285 -1464h-358z" />
<glyph unicode="&#x4f9;" horiz-adv-x="1646" d="M0 0l207 1055h354l-65 -330h163q182 0 269.5 -83.5t87.5 -231.5q0 -189 -129 -299.5t-348 -110.5h-539zM399 231h99q63 0 110 46t47 114q0 48 -28 76.5t-84 28.5h-92zM590 1178l57 286h258l-57 -286h-258zM1018 1178l57 286h258l-57 -286h-258zM1053 0l207 1055h354 l-207 -1055h-354z" />
<glyph unicode="&#x2000;" horiz-adv-x="940" />
<glyph unicode="&#x2001;" horiz-adv-x="1880" />
<glyph unicode="&#x2002;" horiz-adv-x="940" />
<glyph unicode="&#x2003;" horiz-adv-x="1880" />
<glyph unicode="&#x2004;" horiz-adv-x="626" />
<glyph unicode="&#x2005;" horiz-adv-x="470" />
<glyph unicode="&#x2006;" horiz-adv-x="313" />
<glyph unicode="&#x2007;" horiz-adv-x="313" />
<glyph unicode="&#x2008;" horiz-adv-x="235" />
<glyph unicode="&#x2009;" horiz-adv-x="376" />
<glyph unicode="&#x200a;" horiz-adv-x="104" />
<glyph unicode="&#x2010;" horiz-adv-x="886" d="M86 434l59 307h643l-59 -307h-643z" />
<glyph unicode="&#x2011;" horiz-adv-x="886" d="M86 434l59 307h643l-59 -307h-643z" />
<glyph unicode="&#x2012;" horiz-adv-x="886" d="M86 434l59 307h643l-59 -307h-643z" />
<glyph unicode="&#x2013;" horiz-adv-x="1474" d="M96 455l51 266h1221l-51 -266h-1221z" />
<glyph unicode="&#x2014;" horiz-adv-x="1871" d="M90 455l51 266h1631l-52 -266h-1630z" />
<glyph unicode="&#x2018;" horiz-adv-x="591" d="M154 973l282 522h252l-211 -522h-323z" />
<glyph unicode="&#x2019;" horiz-adv-x="577" d="M166 973l211 522h323l-282 -522h-252z" />
<glyph unicode="&#x201a;" horiz-adv-x="593" d="M-94 -182l211 522h323l-282 -522h-252z" />
<glyph unicode="&#x201c;" horiz-adv-x="997" d="M154 973l282 522h252l-211 -522h-323zM559 973l283 522h252l-211 -522h-324z" />
<glyph unicode="&#x201d;" horiz-adv-x="983" d="M166 973l211 522h323l-282 -522h-252zM571 973l211 522h324l-283 -522h-252z" />
<glyph unicode="&#x201e;" horiz-adv-x="999" d="M-94 -182l211 522h323l-282 -522h-252zM311 -182l211 522h324l-283 -522h-252z" />
<glyph unicode="&#x2026;" horiz-adv-x="1896" d="M6 0l64 336h323l-63 -336h-324zM670 0l63 336h324l-64 -336h-323zM1333 0l64 336h323l-63 -336h-324z" />
<glyph unicode="&#x202f;" horiz-adv-x="376" />
<glyph unicode="&#x2039;" horiz-adv-x="798" d="M57 578l392 421h335l-413 -436l266 -405h-313z" />
<glyph unicode="&#x203a;" horiz-adv-x="794" d="M-2 158l414 436l-267 405h314l266 -419l-391 -422h-336z" />
<glyph unicode="&#x205f;" horiz-adv-x="470" />
<glyph unicode="&#x20ac;" horiz-adv-x="1228" d="M29 485l39 197h112q2 40 13 98h-107l39 197h129q106 228 305.5 370t450.5 142q160 0 299 -45l-144 -307q-98 20 -157 20q-105 0 -197.5 -47.5t-155.5 -132.5h445l-80 -197h-453q-12 -67 -14 -98h428l-80 -197h-315q35 -80 104.5 -126t169.5 -46q87 0 201 31v-334 q-103 -35 -221 -35q-255 0 -427 138.5t-218 371.5h-166z" />
<glyph unicode="&#x2122;" horiz-adv-x="2230" d="M266 1241v223h836v-223h-287v-692h-258v692h-291zM1141 549l71 915h242l150 -358l26 -90h4q15 59 27 90l149 358h242l68 -915h-260l-21 356l2 66h-4l-104 -256h-201l-105 256h-4l2 -66l-24 -356h-260z" />
<glyph unicode="&#x25fc;" horiz-adv-x="1054" d="M0 0v1055h1055v-1055h-1055z" />
</font>
</defs>
</svg>
